<?xml version="1.0" encoding="utf-8"?>
<!-- Generator: Adobe Illustrator 26.4.1, SVG Export Plug-In . SVG Version: 6.00 Build 0)  -->
<svg version="1.1" id="Capa_1" xmlns="http://www.w3.org/2000/svg" xmlns:xlink="http://www.w3.org/1999/xlink" x="0px" y="0px"
	 viewBox="0 0 1920 1080" style="enable-background:new 0 0 1920 1080;" xml:space="preserve">
<style type="text/css">
	.st0{fill:#050926;}
	.st1{fill:#070A22;}
	.st2{fill:#080B22;}
	.st3{fill:#090A20;}
	.st4{fill:#0C0B1E;}
	.st5{fill:#0A0B23;}
	.st6{fill:#0F0B1C;}
	.st7{fill:#0D0C20;}
	.st8{fill:#0F0920;}
	.st9{fill:#130E1E;}
	.st10{fill:#0F0D1B;}
	.st11{fill:#10091D;}
	.st12{fill:#120E19;}
	.st13{fill:#0F0B19;}
	.st14{fill:#19111C;}
	.st15{fill:#130E15;}
	.st16{fill:#130F1C;}
	.st17{fill:#140D19;}
	.st18{fill:#140C15;}
	.st19{fill:#170D16;}
	.st20{fill:#DEB46C;}
	.st21{fill:#1D0E0F;}
	.st22{fill:#341F0C;}
	.st23{fill:#240B0A;}
	.st24{fill:#FDFDF6;}
	.st25{fill:#040927;}
	.st26{fill:#060826;}
	.st27{fill:#060924;}
	.st28{fill:#060925;}
	.st29{fill:#070926;}
	.st30{fill:#070B27;}
	.st31{fill:#080A22;}
	.st32{fill:#166395;}
	.st33{fill:#FDB91F;}
	.st34{fill:#FDFDF7;}
	.st35{fill:#EF5440;}
	.st36{fill:#FCFCF0;}
	.st37{fill:#D1443B;}
	.st38{fill:#F8BA24;}
	.st39{fill:#FBBE24;}
	.st40{fill:#FAFAF1;}
	.st41{fill:#5A9F73;}
	.st42{fill:#FBC42A;}
	.st43{fill:#56A471;}
	.st44{fill:#589F71;}
	.st45{fill:#F99615;}
	.st46{fill:#F89715;}
	.st47{fill:#F9B81E;}
	.st48{fill:#FAFBF5;}
	.st49{fill:#F7F9EE;}
	.st50{fill:#F9FAF1;}
	.st51{fill:#FBFAF1;}
	.st52{fill:#FBBB1C;}
	.st53{fill:#F6B111;}
	.st54{fill:#FABB1A;}
	.st55{fill:#F9FAEF;}
	.st56{fill:#F5A510;}
	.st57{fill:#FAF9F4;}
	.st58{fill:#F9F9F2;}
	.st59{fill:#FBFBF6;}
	.st60{fill:#F2A016;}
	.st61{fill:#FABC1F;}
	.st62{fill:#F4970F;}
	.st63{fill:#F29E12;}
	.st64{fill:#F6BC23;}
	.st65{fill:#F9F8F3;}
	.st66{fill:#F6AF14;}
	.st67{fill:#F6B422;}
	.st68{fill:#F6AB14;}
	.st69{fill:#F4A513;}
	.st70{fill:#FAF9F0;}
	.st71{fill:#F3AC1A;}
	.st72{fill:#F9F9F3;}
	.st73{fill:#56A774;}
	.st74{fill:#F4A816;}
	.st75{fill:#F4B01C;}
	.st76{fill:#F3B31D;}
	.st77{fill:#FAFAF3;}
	.st78{fill:#F4F7ED;}
	.st79{fill:#FAF8F4;}
	.st80{fill:#F7F8EB;}
	.st81{fill:#5FA379;}
	.st82{fill:#EFAD1E;}
	.st83{fill:#EF8F11;}
	.st84{fill:#E99113;}
	.st85{fill:#F5930B;}
	.st86{fill:#EA9719;}
	.st87{fill:#F3ECC5;}
	.st88{fill:#EBEEED;}
	.st89{fill:#F6ECB4;}
	.st90{fill:#D5B54F;}
	.st91{fill:#DBB764;}
	.st92{fill:#ECF3F4;}
	.st93{fill:#CCE4D7;}
	.st94{fill:#EFC85F;}
	.st95{fill:#C1DCBE;}
	.st96{fill:#5C8369;}
	.st97{fill:#F2D861;}
	.st98{fill:#F0D58F;}
	.st99{fill:#E9D485;}
	.st100{fill:#D7C580;}
	.st101{fill:#D6C06C;}
	.st102{fill:#855F6E;}
	.st103{fill:#FDFDF4;}
	.st104{fill:#156999;}
	.st105{fill:#2D6F84;}
	.st106{fill:#050B2C;}
	.st107{fill:#050C2E;}
	.st108{fill:#060B2D;}
	.st109{fill:#06092E;}
	.st110{fill:#040F2E;}
	.st111{fill:#050E30;}
	.st112{fill:#070F2F;}
	.st113{fill:#04092F;}
	.st114{fill:#050C2C;}
	.st115{fill:#060C2D;}
	.st116{fill:#040B2E;}
	.st117{fill:#050B33;}
	.st118{fill:#050D2C;}
	.st119{fill:#080D2C;}
	.st120{fill:#815D81;}
	.st121{fill:#FBF8D8;}
	.st122{fill:#F9CE41;}
	.st123{fill:#F9D246;}
	.st124{fill:#070922;}
	.st125{fill:#0C0718;}
	.st126{fill:#0F0A15;}
	.st127{fill:#100B15;}
	.st128{fill:#0E0B15;}
	.st129{fill:#0D0D16;}
	.st130{fill:#110A14;}
	.st131{fill:#F7EAA6;}
	.st132{fill:#050927;}
	.st133{fill:#060923;}
	.st134{fill:#080A23;}
	.st135{fill:#080A25;}
	.st136{fill:#11071E;}
	.st137{fill:#8A5F6E;}
	.st138{fill:#040725;}
	.st139{fill:#060626;}
	.st140{fill:#F9DB51;}
	.st141{fill:#FBEFA8;}
	.st142{fill:#FCEC88;}
	.st143{fill:#F9E67C;}
	.st144{fill:#F8E37A;}
	.st145{fill:#F8EA86;}
	.st146{fill:#F9EA89;}
	.st147{fill:#F8E177;}
	.st148{fill:#F8E480;}
	.st149{fill:#F9EFA4;}
	.st150{fill:#F7E37D;}
	.st151{fill:#F8E26D;}
	.st152{fill:#F7DE75;}
	.st153{fill:#F6E57E;}
	.st154{fill:#F4E57A;}
	.st155{fill:#F8E483;}
	.st156{fill:#F5DD7C;}
	.st157{fill:#F5DF86;}
	.st158{fill:#070925;}
	.st159{fill:#050A24;}
	.st160{fill:#050823;}
	.st161{fill:#060823;}
	.st162{fill:#050922;}
	.st163{fill:#0E0917;}
	.st164{fill:#58957B;}
	.st165{fill:#5E8D81;}
	.st166{fill:#040C32;}
</style>
<g>
	<path class="st0" d="M1353.23,574.73c-1.08,11.32-2.03,22.63-3.79,33.88c-6.63,42.37-21.15,81.71-44.78,117.56
		c-24.48,37.15-54.97,68.49-91.92,93.34c-40.37,27.14-84.6,44.61-132.91,51.05c-47.19,6.29-93.58,2.69-138.98-12.28
		c-44.23-14.58-84.03-36.9-118.41-68.29c-35.41-32.32-63.23-70.25-81.22-114.96c-18.11-45.01-24.7-91.81-20.53-140.03
		c3.48-40.23,13.42-78.79,32.76-114.53c34.52-63.79,84.15-111.63,150.4-141.77c28.13-12.8,57.5-21.63,88.09-26.02
		c31.5-4.53,63.01-4.08,94.46,0.92c60.18,9.57,113.16,34.61,159.29,74.22c27.31,23.45,49.75,51.01,67.91,82.08
		c21.91,37.5,34.04,78.09,38.19,121.18c0.54,5.58,1.01,11.16,1.51,16.75C1354.04,556.8,1354.16,565.77,1353.23,574.73z"/>
	<path class="st1" d="M691.27,554.14c6.02,0.12,9.96,4,9.82,9.67c-0.14,5.68-4.63,10.01-10.31,9.96c-5.58-0.05-9.57-4.31-9.48-10.13
		C681.38,557.97,685.52,554.03,691.27,554.14z"/>
	<path class="st2" d="M1371.72,563.56c0.06-6.01,3.73-9.54,9.85-9.48c5.72,0.05,9.68,4.16,9.59,9.95
		c-0.08,5.41-4.61,9.72-10.15,9.64C1375.22,573.59,1371.66,569.72,1371.72,563.56z"/>
	<path class="st3" d="M1029.34,226.14c0.05-4.53,2.59-7.08,7.04-7.06c4.07,0.01,7.28,3.18,7.22,7.13c-0.06,3.82-3.48,7.2-7.32,7.24
		C1032.2,233.48,1029.29,230.41,1029.34,226.14z"/>
	<path class="st3" d="M1029.34,897.65c0.06-4.28,2.94-7.02,7.23-6.87c3.98,0.14,6.75,3.09,6.66,7.1c-0.09,3.91-3.5,7.18-7.37,7.07
		C1032.14,904.84,1029.28,901.65,1029.34,897.65z"/>
	<path class="st4" d="M725.11,702.02c0.09,3.2-2.5,5.9-5.7,5.93c-3.21,0.03-5.44-2.22-5.42-5.56c0.02-3.53,1.93-5.4,5.37-5.65
		C722.57,696.52,725.02,698.84,725.11,702.02z"/>
	<path class="st5" d="M1361.32,701.41c0.07,3.16-2.34,6.2-5.18,6.06c-3.09-0.15-5.38-1.51-5.45-5.11c-0.07-3.27,2.12-5.9,5.12-6.06
		C1358.8,696.14,1361.26,698.42,1361.32,701.41z"/>
	<path class="st6" d="M735.83,405.39c-0.45,3.03-2.22,4.85-5.33,4.71c-2.9-0.13-5.2-1.51-5.34-4.81c-0.14-3.31,2.37-5.76,5.53-5.53
		C734.1,400.01,735.53,402.14,735.83,405.39z"/>
	<path class="st7" d="M1338.52,405.72c-0.04-3.21,2.36-5.89,5.39-5.76c3.09,0.13,4.93,1.84,5.12,4.98c0.17,2.85-2.74,5.65-5.67,5.62
		C1340.87,410.53,1338.55,408.21,1338.52,405.72z"/>
	<path class="st8" d="M725.72,717.44c0.37-3.06,1.72-5.02,5.1-4.85c3,0.15,4.92,1.76,4.63,4.71c-0.27,2.84-2.15,4.97-5.25,5.01
		C727.13,722.33,725.83,720.31,725.72,717.44z"/>
	<path class="st9" d="M1225.95,834.14c0.21-2.3,1.63-4.13,4.76-4c3.1,0.13,4.62,2.08,4.48,4.99c-0.14,2.9-2.05,4.84-4.92,4.73
		C1227.41,839.76,1225.74,837.88,1225.95,834.14z"/>
	<path class="st10" d="M1335.03,385.52c2.29,0.18,4.03,1.81,4.02,4.72c-0.02,3.22-2.19,4.72-5.19,4.72c-2.93,0-4.23-2.01-4.11-4.7
		C1329.87,387.5,1331.11,385.45,1335.03,385.52z"/>
	<path class="st11" d="M742.62,726.08c1.86,0.04,3.71,1.48,3.7,4.26c-0.01,2.84-1.81,4.81-4.72,4.87c-2.68,0.06-4.7-1.5-4.62-4.34
		C737.06,728.13,738.48,726.09,742.62,726.08z"/>
	<path class="st12" d="M721.17,414.92c2.56,0.22,4.61,1.4,4.69,4.23c0.09,3-1.99,4.77-4.76,4.73c-2.52-0.04-4.57-1.68-4.55-4.51
		C716.57,416.62,718.24,415.07,721.17,414.92z"/>
	<path class="st13" d="M767.13,762.91c-0.06,1.91-1.99,3.46-4.74,3.51c-2.53,0.04-4.17-1.71-4.15-4.3c0.03-2.82,1.38-4.89,4.53-4.84
		C765.55,757.32,767.14,758.81,767.13,762.91z"/>
	<path class="st14" d="M705.2,669.76c2.31,0.11,4.22,1.26,4.29,3.93c0.07,2.8-1.75,4.5-4.48,4.51c-2.5,0.01-4.35-1.43-4.26-4.16
		C700.84,671.53,702.19,669.85,705.2,669.76z"/>
	<path class="st15" d="M707.99,449.98c-2.68-0.27-4.31-1.68-4.13-4.31c0.18-2.64,1.68-4.46,4.61-4.29c2.62,0.15,4.19,1.79,4.16,4.33
		C712.61,448.55,710.58,449.73,707.99,449.98z"/>
	<path class="st16" d="M1369.6,446.23c-0.32,2.68-1.8,4.26-4.4,4.24c-2.56-0.02-4.27-1.39-4.17-4.2c0.09-2.7,1.69-4.13,4.3-4.19
		C1368.07,442.01,1369.33,443.68,1369.6,446.23z"/>
	<path class="st17" d="M1354.66,415.25c2.23,0.29,4.04,1.37,3.88,4.17c-0.14,2.5-1.48,4.25-4.12,4.33c-2.53,0.08-4.4-1.11-4.33-3.89
		C1350.14,417.2,1351.49,415.41,1354.66,415.25z"/>
	<path class="st18" d="M825.97,829.02c0.03-2.49,1.19-4.08,3.73-4.13c2.46-0.05,4.07,1.25,3.91,3.85c-0.15,2.38-1.5,3.94-4.03,3.93
		C827.26,832.66,825.95,831.44,825.97,829.02z"/>
	<path class="st19" d="M768.92,357.56c-0.27,2.14-1.82,3.39-3.9,3.32c-1.94-0.07-3.27-1.4-3.18-3.63c0.1-2.29,1.18-3.75,3.57-3.68
		C767.73,353.64,768.86,355.06,768.92,357.56z"/>
	<path class="st20" d="M1353.23,574.73c0.02-8.97,0.03-17.93,0.05-26.9c0-1.95,0-3.89,0-5.84c0.21,0,0.42,0,0.62,0
		c0,12.68,0,25.36,0,38.05c-0.11,0.02-0.23,0.04-0.34,0.06C1353.45,578.31,1353.34,576.52,1353.23,574.73z"/>
	<path class="st21" d="M1277.46,795.12c0.28-1.95,1.07-3.44,3.39-3.34c1.93,0.08,3.25,1,3.18,3.03c-0.07,2-1.08,3.53-3.31,3.47
		C1278.83,798.22,1277.68,797.09,1277.46,795.12z"/>
	<path class="st22" d="M792.13,794.06c1.76,0.15,2.46,1.14,2.31,2.54c-0.14,1.31-0.84,2.37-2.42,2.31c-1.59-0.06-2.16-1.1-2.12-2.5
		C789.94,794.9,790.97,794.29,792.13,794.06z"/>
	<path class="st23" d="M1260.15,817.72c-0.09,1.28-0.74,2.25-2.25,2.34c-1.51,0.09-2.38-0.65-2.34-2.22
		c0.04-1.24,0.51-2.14,1.93-2.24C1258.97,815.5,1259.93,816.02,1260.15,817.72z"/>
	<path class="st24" d="M1039,266.94c53.58,0.6,106.77,15,155.13,45.09c64.64,40.23,110.02,96.13,130.67,169.96
		c22.83,81.61,12.18,159.57-32.97,231.39c-41.71,66.35-100.99,111.16-176.68,132.23c-74.9,20.86-147.21,11.73-216.16-23.97
		c-54.93-28.44-97.33-70.05-127.39-123.92c-18.9-33.86-29.78-70.48-33.46-109.18c-4.73-49.72,2.17-97.93,22.88-143.2
		c35.49-77.57,93.96-131.15,174.4-160.24C967.77,273.42,1001.14,266.99,1039,266.94z"/>
	<path class="st25" d="M1038.72,825.85c-64.57-0.61-122.09-21.18-172.29-61.7c-42.58-34.36-72.85-77.38-87.95-130.27
		c-15.21-53.26-14.46-106.71,4.05-158.83c22.63-63.7,64.38-111.91,124.44-143.6c42.23-22.29,87.22-34.46,135.12-33.35
		c59.53,1.38,113.13,20.52,160.48,56.71c33.72,25.78,60.06,57.76,78.46,96.02c16.39,34.09,23.86,70.32,23.82,108.09
		c-0.07,74.42-27.45,137.5-80.25,189.38c-42.91,42.16-94.61,67.29-154.28,75.65C1059.86,825.41,1049.3,825.73,1038.72,825.85z"/>
	<path class="st26" d="M1319.97,554.28c4.81-0.06,8.87,3.76,8.81,8.27c-0.07,5.01-4.25,9.12-9.2,9.04
		c-4.52-0.07-8.13-3.75-8.27-8.43C1311.16,558.24,1314.96,554.34,1319.97,554.28z"/>
	<path class="st27" d="M752.54,554.3c4.63-0.08,8.41,3.43,8.56,7.94c0.16,4.85-3.68,9.15-8.33,9.33c-5,0.19-8.88-3.47-9-8.49
		C743.67,558.27,747.53,554.4,752.54,554.3z"/>
	<path class="st28" d="M1035.93,832.61c4.84-0.05,8.52,3.29,8.59,7.83c0.07,4.4-3.74,8.31-8.21,8.41c-4.79,0.11-8.53-3.37-8.5-7.91
		C1027.83,836.2,1031.28,832.66,1035.93,832.61z"/>
	<path class="st29" d="M1036.04,291.32c-4.76,0.05-8.25-3.13-8.33-7.61c-0.08-4.87,3.6-8.7,8.35-8.68c4.61,0.02,8.48,3.73,8.5,8.15
		C1044.58,287.49,1040.62,291.27,1036.04,291.32z"/>
	<path class="st30" d="M1198.88,328.48c-0.17,2.96-3.31,5.52-6.44,5.25c-3-0.26-5.44-3.01-5.26-5.94c0.2-3.26,2.96-5.72,6.15-5.49
		C1196.55,322.54,1199.06,325.33,1198.88,328.48z"/>
	<path class="st31" d="M999.63,280.91c2.7,0.45,4.84,2.03,5.1,5.27c0.22,2.75-3.03,5.86-5.74,5.42c-2.96-0.48-5.27-1.97-5.15-5.47
		C993.94,283.18,996.44,280.8,999.63,280.91z"/>
	<path class="st32" d="M840.33,679.38c-2.55-6.18-3.5-12.99-7.26-18.71c-0.56-0.85-0.22-1.94,0.22-2.85
		c3.32-6.83,3.25-14.13,3.07-21.45c-0.04-1.7-0.02-3.38,0.73-4.95c0.15-0.95,0.86-1.46,1.56-1.98
		c15.39-5.92,29.85-13.88,44.93-20.48c25.03-11.43,49.59-23.97,75.68-32.92c16.65-5.71,33.78-9.18,51.41-10.6
		c33.27-2.68,65.07,4.27,96.6,13.51c28.98,8.49,57.84,17.35,86.63,26.46c1.14,0.25,2.01,0.88,2.59,1.9
		c0.34,0.93,0.86,1.75,1.52,2.48c1.61,1.8,1.32,3.43-0.81,4.35c-2.84,1.22-3.46,3.51-3.33,6.15c0.23,4.66-0.58,9.31-0.47,14.55
		c2.06-2.26,2.59-6.41,6.5-3.28c1.01,0.81,0.84-0.65,1.06-1.1c1.09-2.28,2.79-3.95,5.22-4.5c1.77-0.4,3.31-0.17,2.77-2.99
		c-0.25-1.32,1.8-1.99,3.3-1.65c3.29,0.75,5.18-0.06,5.01-3.85c-0.05-1.14,1.03-1.55,2.03-1.79c3.02-0.4,5.76,1.56,8.8,1.03
		c0.8,7.38,0.3,14.79,0.44,22.18c0.13,6.61,1.02,12.89,3.9,19.07c2.45,5.26,0.32,10.87-1.31,16.19c-0.17-0.12-0.34-0.25-0.51-0.37
		c-1.84-3.65-0.26-7.7-1.2-11.61c-3.97,5.32-5.26,5.65-11.19,2.95c-0.89-0.41-1.79-1.06-2.75-0.89c-5.43,0.95-10.96,0.54-16.4,1.31
		c-1.39,0.2-2.77,0.3-4.17,0.03c-7.32-1.38-7.67-1.74-9.38-10c-0.97-0.98-0.47-2.08-0.21-3.13c0.42-1.73,0.53-3.49-1.32-4.37
		c-1.95-0.93-4.14-1.02-6,0.22c-1.93,1.29-0.82,4.29,1.95,5.49c1.77,0.76,3.96,0.15,5.48,1.71c1.17,2.05-0.53,2.44-1.78,2.74
		c-2.39,0.58-4.77,1.52-7.31,0.84c-1.62-0.43-3.01-0.24-3.8,1.49c-0.29,0.3-0.63,0.53-1.01,0.7c-2.23,0.57-3.59-0.43-4.04-2.52
		c-0.81-3.73-3.53-4.76-6.8-5.13c-2.24-0.25-4.49-0.05-6.72-0.23c-4.53-0.36-8.17-3.37-8.36-6.87c-0.24-4.47,3.22-8.45,7.93-9.14
		c0.8-0.12,1.7,0.01,2.47-1.02c-1.36-1.71-3.51-3.09-3.44-5.79c0.04-1.29-1.19-1.45-2.19-1.4c-2.14,0.1-4.24,0.46-5.42,2.56
		c-0.55,0.97-0.49,2.19-1.08,3.17c-1.46,1.49-2.57,0.1-3.68-0.54c-1.65-0.95-3.21-1.15-4.61,0.28c-1.44,1.47-1.05,3.06-0.05,4.61
		c0.68,1.04,1.69,1.92,1.62,3.34c-1.16,2.98-3.52,2.77-5.42,1.4c-2.03-1.46-4.17-2.13-6.48-2.67c-1.67-0.39-3.3-1.04-3.98-2.76
		c-1.16-2.93-3.18-2.61-5.47-1.69c-1.16,0.47-2.32,0.98-3.59,1.12c-2.76,0.28-5.11-0.54-6.25-3.16c-1.04-2.4,0.09-4.3,2.2-5.65
		c1.38,0.14,1.52,1.47,2.15,2.31c0.73,0.98,2.05,1.94,2.76,1.13c2.7-3.06,7.54-0.6,9.86-4.05c0.55-0.82-0.07-1.9-0.83-2.6
		c-1.51-1.41-3.24-1.31-5.06-0.72c-1.91,0.61-3.33,2.71-5.71,1.87c-1.07-1.5,0.04-2.6,0.67-3.81c0.59-1.12,2.34-2.22,0.59-3.55
		c-1.61-1.21-3.41-0.96-5.09,0.18c-1.63,1.1-1.59,3.25-2.93,4.53c-3.45-0.62-6.63-2.28-10.15-2.62c-1.63-2.74,2.47-3.79,1.74-6.6
		c-4.4,2.15-8.34-0.66-12.44-1.49c-2.61-0.52-4.49-0.64-6.43,1.05c-1.01,0.39-2.01,0.39-3-0.1c-2.14-2.1-1.21-4.56-0.57-7.02
		c-3.19-0.05-5.81-1.65-9.61-1.88c3.21,2.04,5.17,4.17,5.02,7.59c-0.13,3.11,2.55,0.1,3.32,1.39c0.14,5.5,5.01,6.45,8.52,8.41
		c2.93,1.64,3.76-2.01,5.56-3.26c0.27-0.1,0.56-0.19,0.8-0.08c2.66,1.21,5.72,2.08,7.11,2c0.89,1.11,0.39,2.39,0.45,3.61
		c0.19,3.95,2.65,5.63,6.49,4.48c1.12-0.34,2.15-1.48,3.44-0.41c0.95,2.76-0.31,4.43-2.88,4.99c-2.76,0.61-5.75,0.87-8.21-0.72
		c-4.26-2.77-8.7-2.64-13.36-1.7c-4.71,0.95-6.81-0.92-6.5-6.78c-4.3,7.32-9.12,1.91-13.58,1.57c-2.57-0.2-3.54-2.49-1.1-4.95
		c-10.3-0.23-20.34-0.96-30.41-0.62c-1.4,0.05-2.94-0.25-4.11,0.57c-2.54,1.77-4.63,1.57-6.57-0.86c-0.65-0.81-1.66-1.07-2.68-0.95
		c-4.92,0.58-9.79-0.83-14.7-0.4c-3.38,0.29-6.07-0.76-7.72-3.89c-0.25-0.33-0.44-0.69-0.57-1.08c-0.51-3.32,1.34-5.94,3.98-6.64
		c3.93-1.04,7.08-2.74,9.22-6.09c-3.26,0.73-6.67,1.69-9.44,4.18c-1.64,1.48-3.54,2.65-5.72,1.9c-5.5-1.89-11.12,0.25-16.7-0.74
		c-3.32-0.59-5.96,2.3-7.82,4.9c-1.26,1.75-0.67,3.95,1.6,4.84c2.35,0.92,3.15,2.59,3.19,4.89c0.01,0.7-0.13,1.58,0.37,2.03
		c3.72,3.39,0.82,3.87-1.9,5.05c-4.43,1.92-8.98,3.36-13.22,6.09c-3.84,2.47-8.33,4.97-13.42,5.14c0.82,3.35,4.16,3.4,5.39,5.61
		c0.01,2-1.58,2.58-2.98,3.08c-12.69,4.48-24.82,10.35-37.47,14.96c-9.35,3.41-18.49,7.39-28,10.33
		c-5.87,1.82-11.86,3.26-17.91,4.41c-2.97-0.1-5.93-0.14-8.64,1.4c-1.2,0.33-2.41,0.51-3.65,0.34
		C846.33,680.01,843.17,681.07,840.33,679.38z"/>
	<path class="st33" d="M883.5,610.21c-12.36,5.91-24.52,12.27-37.28,17.29c-2.41,0.95-4.46,2.92-7.28,2.8
		c-1.62,0.25-1.45-0.98-1.42-1.87c0.32-9.42-0.99-18.91,1.18-28.25c0.04-0.47,0.08-0.95,0.13-1.42c0.24-1.42,1.13-2.42,2.19-3.3
		c1.37-0.46,1.99,0.6,2.86,1.49c0.75-4.76,2.22-9.16,5.06-13c1.03-1.39,1.53-2.88,1.7-4.64c0.43-4.5,2.75-5.79,6.76-3.9
		c1.15,0.54,2.18,1.47,3.29,0.01c0.79-0.84,1.63-1.58,2.9-1.43c2.69-2.21,2.32-6.28-0.89-8.41c-1.04-0.69-2.25-1.14-3.09-2.12
		c-1.88-2.17-1.55-4.05,1.1-5.19c2.07-0.89,3.42-1.88,3.62-4.48c0.22-2.83,2.75-3.66,5.21-3.99c2.78-0.38,5.59-0.12,8.39-0.11
		c2.26,0.01,3.82-0.71,4.07-3.19c0.09-0.39,0.25-0.75,0.46-1.09c1.81-1.31,0.69-2.39-0.32-3.4c-1.95-1.96-4.5-2.75-7.04-3.55
		c-1.28-0.4-2.46-0.96-2.33-2.54c0.15-1.8,1.39-2.06,3-2.13c3.27-0.15,4.93-1.36,6.8-4.87c2.65-4.96,6.18-9.98,10.71-13.84
		c1.78-1.51,3.45-0.67,4.96,0.51c1.59,1.24,3.07,2.66,5.14,0.89c2.22-1.9,5.04-3.56,4.08-7.16c-0.61-2.27-2.22-3.86-4.58-4.45
		c-1.54-0.39-4.16,0.3-4.17-1.78c-0.01-2.4,2.75-2.18,4.59-2.75c3.63-1.12,7.8-1.33,9.71-5.58c0.61-1.36,2.13-1.72,3.48-2.18
		c1.86-0.64,3.12-1.9,3.43-3.9c0.19-1.27,0.23-2.68,1.86-2.88c1.31-0.16,1.94,0.94,2.55,1.89c0.31,0.48,0.63,0.93,1.18,1.16
		c2.64,1.53,5.28,2.28,7.95,0.09c1.9-1.36,0.57-3.43,1.13-5.02c0.64-1.81,1.62-3.23-0.52-4.84c-0.85-0.64-0.34-2.28,0.64-2.96
		c2.57-1.8,4.95-4.15,8.54-3.62c0.13,0.02,1.04,1.24,0.62-0.09c-0.81-2.56,1.89-3.29,2.26-4.79c1.07-4.29,4.53-4.62,7.64-5.74
		c2.79-3.81,7.73-2.77,11.25-4.98c0.63-0.39,1.99,0.03,2.38-0.56c2.86-4.29,8.21-2.83,11.88-5.28c1.49-1,3.72-2.15,4.51,1.1
		c-0.04,1.94-0.65,3.86-0.21,5.81c0.46,2.04,1.37,3.99,3.84,3.43c2.58-0.59,2.94-2.66,2.14-4.96c-0.36-1.05-1.01-1.99-1.21-3.1
		c-0.09-0.97-0.07-1.97-0.3-2.92c-0.67-2.74,0.61-3.64,3.13-3.32c1.25,0.16,2.72,0.8,3.66-0.11c4.97-4.81,12.13-3.58,17.78-6.65
		c3.19-1.73,7.17-1.08,10.68-1.06c5.75,0.04,11.32-1.14,16.93-1.78c6.31-0.71,12.5-0.55,18.64,0.34c2.65,0.38,4.82,0.63,6.97-1.04
		c3.77-0.27,7.54-0.5,11.3,0.15c5.04,1.95,10.23,3.15,15.65,3.27c0.44,0.1,0.86,0.28,1.26,0.49c5.87,1.61,11.56,3.81,17.39,5.55
		c12.6,4.99,23.91,12.24,34.84,20.12c36.3,26.18,60.97,60.72,73.86,103.56c4.58,15.21,7.55,30.77,7.98,46.73
		c-0.6,2.26-2.23,1.64-3.63,1.17c-1.69-0.57-3.29-1.44-5.16-1.25c-6.83-0.78-12.72-4.73-19.49-5.75c-1.68-0.25-2.92-1.57-4.19-2.66
		c-0.14-0.78-0.56-1.31-1.34-1.53c-1.3-0.69-1.52-1.94-1.6-3.23c-0.74-11.97-3.31-23.6-6.84-35.02
		c-5.44-17.61-13.75-33.76-25.17-48.26c-11.02-13.99-23.88-26.08-38.49-36.23c-14.44-10.04-30.23-17.15-47.39-21.2
		c-8.2-1.94-16.45-3.47-24.9-3.76c-0.83-0.13-1.62-0.46-2.47-0.47c-12.86-0.17-25.64,0.57-38.21,3.52
		c-0.41,0.21-0.84,0.36-1.29,0.46c-4.05,0.58-7.98,1.67-11.83,3.06c-0.39,0.18-0.79,0.3-1.21,0.39c-6.14,1.66-12.21,3.55-17.99,6.26
		c-1.26,0.47-2.58,0.79-3.57,1.81c-1.09,0.79-2.25,1.43-3.55,1.82c-1.25,0.25-2.51,0.47-3.38,1.56c-1.05,0.89-2.24,1.53-3.55,1.95
		c-5.94,2.01-10.52,6.26-15.68,9.55c-2.34,1.49-4.75,2.96-6.54,5.17c-0.32,0.22-0.67,0.4-1.03,0.55c-3.25,1.69-5.75,4.36-8.52,6.66
		c-9.75,9.69-19.32,19.63-26.63,31.28c-8.41,13.41-15.77,27.44-18.19,43.44c-0.05,0.63-0.19,1.23-0.42,1.81
		c-0.52,1.11-1.24,2.1-1.96,3.08c-6.28,5.6-6.46,7.3-1.52,14.34c0.48,0.69,0.87,1.43,1.21,2.2
		C885.2,601.7,885.77,605.97,883.5,610.21z"/>
	<path class="st34" d="M1031.94,316.39c5.29-0.19,10.52,0.1,15.81,0.49c5.32,0.39,10.75,0.56,16.07,1.03
		c13.36,1.17,26.6,3.45,39.49,7.27c59.24,17.53,107.61,50.52,143.29,101.32c20.29,28.88,32.51,60.97,37.6,95.91
		c0.97,6.65-3.77,8.56-6.84,12.1c-0.46-0.03-0.92-0.07-1.37-0.1c0-4.39,0.02-8.78,0-13.17c-0.04-7.35-1.06-14.55-3.59-21.48
		c-3.29-9-9.4-15.6-17.76-19.99c-3.22-1.69-4.25-3.73-4.19-7.24c0.35-20.48-9.51-34.6-27.57-43.44c-1.25-0.61-2.56-1.15-3.89-1.56
		c-5.19-1.63-7.04-0.35-7.39,5.02c-0.69,10.5-1.4,20.99,3.2,31.71c-3.88-2.01-6.94-3.59-10-5.17c-1.71-0.88-2.09-2.51-2.42-4.19
		c-0.82-4.14-1.94-8.19-3.89-11.96c-5.73-11.05-15.11-16.34-27.29-16.6c-4.92-0.11-7.43-2.3-9.59-6.52
		c-7.44-14.52-18.7-22.93-35.89-20.8c-3.21,0.4-5.68-0.51-7.76-3.01c-10.5-12.61-23.54-17.68-39.73-13.12
		c-1.57,0.44-2.96,0.3-4.34-0.78c-1.66-1.29-3.45-2.42-5.28-3.46c-11.21-6.4-22.61-5.93-33.82-0.29c-2.79,1.4-4.74,1.79-7.79,0.68
		c-10.03-3.64-19.9-2.98-29.39,2.34c-1.71,0.96-2.81,2.6-4.61,3.31c-2.91,0.29-2.38-1.5-1.61-3c0.84-1.64,2.35-2.8,4-3.63
		c1.52-0.76,3.01-1.52,4.18-2.78c1.8-1.93,3.89-2.5,6.49-1.77c2.22,0.63,4.14,0.64,4.31-2.67c0.16-2.97,2.77-3.08,5.02-3.4
		c2.12-0.3,4.44,0.49,6.68-1.12c-1.73-2.28-4.03-2.12-6.19-2.27c-4.83-0.34-12-6.98-12.64-11.78c-0.22-1.65,0.11-3.18,1.71-3.97
		c1.81-0.9,3.72-1.42,5.33,0.48c0.23,1.56-0.67,2.97-0.63,4.52c0.07,2.32,0.79,4.33,3.39,4.47c2.66,0.15,4.55-1.17,4.87-4.07
		c0.14-1.25-0.28-2.5-0.05-3.75c1.91-3.53,5.3-2.2,7.8-1.68c2.03,0.43,1.57,2.94,0.49,4.64c-0.71,1.11-2.13,1.83-2.04,3.69
		c2.75,0.11,4.07-3.11,6.94-2.45c2.38,0.55,4.33,1.95,7.61,3.01c-1.95-2.56-3.88-3.75-5.7-5.01c-5.76-4.01-7.4-8.7-5.3-15.31
		c1.04-3.27,3.29-4.79,6.69-4.35c1.39,0.18,2.7,0.49,4.13-0.02c1.88-0.68,3.41-1.38,2.65-3.84c-0.77-2.48,1.65-5.23,0.04-7.35
		c-1.68-2.21-4.55,0-6.79-0.66C1032.27,320,1030.67,318.98,1031.94,316.39z"/>
	<path class="st35" d="M849.8,679.25c1.09-0.06,2.18-0.11,3.27-0.17c2.64-1.59,5.89,0.06,8.52-1.59c10.43-2.7,20.77-5.59,30.93-9.3
		c13.9-5.07,27.47-10.92,41.21-16.36c4.74-1.88,10.13-2.63,14.04-6.41c6.69-4.38,14.38-6.05,21.91-8.22
		c9.17-2.64,18.57-4.21,27.84-6.37c1.24-0.29,2.5-0.39,3.76-0.41c8.42-0.13,16.86-0.65,25.24-0.59c12.4,0.09,25,0.07,36.99,4.32
		c2.33,1.07,4.7,1.96,7.35,1.42c3.74-0.26,7.18,1.25,10.66,2.15c14.78,3.82,29.43,8.1,44.11,12.31c10.9,3.13,21.81,6.17,32.62,9.61
		c1.54,1.37,3.45,1.45,5.37,1.48c2.27,0.5,4.41,1.43,6.62,2.12c1.53,1.25,3.39,1.18,5.2,1.27c3.36,1,6.72,2,9.89,3.51
		c1.88,1.19,3.99,1.54,6.16,1.7c0.39,0.07,0.76,0.2,1.13,0.33c1.56,0.85,3.24,1.21,5.01,1.26c0.6,0.1,1.17,0.29,1.71,0.56
		c1.91,1.55,4.33,0.64,6.42,1.31c2.14,0.75,4.4,1.1,6.55,1.86c1.68,1.2,3.65,1.65,5.61,2.13c0.61,0.16,1.15,0.45,1.62,0.88
		c1.86,2.65,1.25,4.43-1.58,6.11c-3.6,2.13-6.72,5.14-11.4,4.61c-1.16-0.13-2.04,0.83-2.96,1.46c-1.07,0.73-2.4,1.57-3.5,1.18
		c-5.61-1.93-11.72-0.17-17.27-2.63c-2.85-1.26-4.99-2.39-4.09-6.1c0.53-2.18-0.84-3.72-2.68-4.78c-1.23-0.71-2.74-0.75-3.95-1.42
		c-6.38-3.54-11.62-2.68-16.78,2.8c-3.72,3.95-5.34,3.39-8.73-0.74c-1.97-2.4-4.14-2.89-6.4-0.49c-1.69,1.79-3.78,2.41-6.08,2.36
		c-5.04-0.11-10.02-0.32-14.91-2.01c-9.56-3.3-19.51-4.96-29.57-5.72c-3.1-0.23-6.13-0.47-9.1-1.34
		c-6.29-1.85-12.92-1.91-19.23-3.76c-2.46-0.72-5.13-0.5-7.4,0.74c-4.7,2.58-8.61,1.38-12.23-2.03c-0.89-0.84-1.53-2.09-3.08-1.84
		c-2.17-0.36-4.3-1.32-6.55-0.41c-4.09,5.19-9.51,1.91-14.33,2.15c-3.92,0.2-7.79,0.63-11.66,1.16c-1.14,0.16-2.23,0.34-3.29-0.14
		c-2.03-0.93-3.72-0.31-5.52,0.8c-4.96,3.07-6.31,2.6-8.16-2.67c-0.79-2.27-2.14-3.71-4.65-3.27c-2.82,0.49-2.5,2.55-1.96,4.58
		c0.61,2.28-0.73,3.49-2.53,4.22c-3.12,1.26-6.29,2.49-9.73,2.45c-2.69-0.03-5.37,0.11-7.92,0.9c-4.7,1.47-8.47,0.07-11.95-3.12
		c-3.54-3.26-4.33-3.08-6.23,1.2c-1.11,2.5-2.78,3.97-5.51,4.65c-7.98,2-16.08,3.75-23.46,7.57c-3.55,1.83-6.42,1.42-8.98-1.6
		c-0.54-0.64-1.17-1.21-1.82-1.75c-1.17-0.99-2.33-2.3-4.03-1.77c-1.84,0.57-1.72,2.31-1.84,3.87c-0.29,3.87-3.02,5.81-6.26,6.46
		c-4.95,0.99-9.86,2.17-14.83,3.03c-3.9,0.67-7.65,0.61-11.57-0.79c-3.36-1.21-7.01,0.65-10.57,0.85c-4.58,0.26-7.36-0.56-9.27-4.68
		c-0.76-1.64-1.98-1.62-3.06-2.25c-1.2-1.13-1.18-2.77-1.79-4.16c0.04-2.2,1.75-1.7,2.98-1.74
		C846.05,679.92,847.96,679.91,849.8,679.25z"/>
	<path class="st36" d="M1010,349.05c-2.02-0.49-4.29-1.13-5.56,1.03c-1.19,2.03,0.38,3.63,1.69,5.16c1.09,1.26,2.26,2.57,2.92,4.06
		c1.31,2.97,3.58,3.68,6.47,3.45c2.42-0.19,4.77,0.17,6.91,1.3c0.97,0.51,1.94,1.31,1.52,2.67c-0.36,1.15-1.1,1.92-2.43,1.92
		c-2.38,0-4.77-0.11-7.13,0.08c-2.08,0.17-3.95,0.59-2.63,3.64c0.8,1.85-2.58,4.09-5.09,2.76c-3.58-1.9-5.31-0.18-7.32,2.2
		c-1.68,1.99-4.76,1.85-6.45,4.06c-1,1.3-2.52,2.24,0.09,3.29c-1.12,2.54-2.96,1.38-4.59,0.81c-6.05-2.1-12.13-3.18-18.58-1.78
		c-6.31,1.37-11.63,4.2-15.44,9.4c-1.63,2.23-3.38,2.91-6.03,2.66c-5.83-0.54-11.49,0.24-16.68,3.23c-2.86,1.65-5.49,3.79-6.71,6.8
		c-2.18,5.37-6.39,6.4-11.44,6.71c-9.21,0.58-16.74,4.35-21.87,12.29c-0.23,0.35-0.56,0.69-0.64,1.08
		c-1.56,7.31-7.65,7.48-13.24,8.53c-2.11,0.39-2.61-0.4-2.77-2.36c-0.48-6.21-1.97-12.21-4.93-17.72c-1.43-2.66-0.58-3.83,1.82-5.16
		c2.96-1.63,4.98-2.43,8.71-0.4c13.63,7.41,30.44-2.47,32.38-18.41c1.01-8.31-0.28-16.26-3.87-23.75c-0.95-1.98-0.72-3.18,0.38-4.86
		c2.99-4.55,6.46-8.82,8.74-13.82c0.32-0.71,1.03-1.38,1.72-1.76c34.8-18.87,71.95-28.99,111.57-29.86c0.14,0,0.27,0.06,0.41,0.09
		c0.43,3.2,2.21,3.66,5.12,2.96c5.53-1.35,6.77,0.09,5.39,5.63c-0.27,1.07-0.15,2.23-0.37,3.32c-0.28,1.41,2.33,3.03,0.24,3.95
		c-2.16,0.95-4.36,2.39-7.07,1.72c-4.46-1.11-5.68,0.21-6.8,4.62c-1.56,6.19,0.92,10.02,5.88,13.12c1.99,1.24,3.69,2.95,5.51,4.47
		c0.52,0.44,1.23,0.88,0.8,1.71c-0.38,0.74-1.18,0.61-1.86,0.63c-0.99,0.03-1.94-0.05-2.8-0.67c-3.31-2.38-6.54-4.7-9.81,0.25
		c-0.63,0.95-2.41,0.69-3.47-0.2c-1.28-1.07-0.68-2.17,0.08-3.33c3.6-5.52,3.59-5.56-2.79-5.79c-0.49-0.02-1.02,0.81-1.53,1.24
		C1015.62,349.92,1012.85,349.13,1010,349.05z"/>
	<path class="st37" d="M842.94,685.88c1.49,0.15,1.7-1.77,2.89-1.9c2.29,1.14-0.11,3.49,1.55,4.91c2.4,2.04,4.58,4.12,8.12,2.56
		c0.97-0.43,2.19-0.45,3.28-0.39c1.3,0.08,3.01,1.69,3.34-1.19c0.01-0.1,2.7-0.44,3.4,0.17c3.74,3.26,7.99,1.95,12.02,1.48
		c4.9-0.57,9.6-2.28,14.58-2.88c2.31-0.28,6.22-1.84,4.99-6.32c-0.56-2.04,0.86-3.61,2.35-4.57c1.46-0.93,2.94,0.23,4.25,1.05
		c0.24,0.15,0.4,0.41,0.65,0.54c2.84,1.53,3.67,6.9,8.21,4.89c3.04-1.35,6.51-1.8,9.15-4.09c0.51-0.44,1.21-0.92,1.83-0.92
		c5.48,0.05,10.17-3.26,15.58-3.57c2.73-0.16,3.53-2.41,4.19-4.64c1.28-4.35,3.84-5.23,6.74-1.98c3.65,4.1,7.58,5.63,13.01,3.73
		c4.42-1.55,9.4-0.11,13.9-2.04c2.54-1.09,6.23-0.89,3.67-5.5c-0.86-1.55,0.06-3.53,1.81-4.22c2.26-0.88,4.7-1.13,6.58,1.02
		c0.54,0.62,0.98,1.39,1.25,2.17c2.01,5.59,2.05,5.68,7.31,2.06c1.84-1.27,3.24-1.3,5.35-0.5c3.21,1.21,6.6-0.38,9.94-0.5
		c3.57-0.13,7.27-1.24,10.62,0.11c2.81,1.13,4.63,1.26,6.15-1.58c0.53-1,1.47-1.23,2.5-0.61c0.22,4.61,0.76,9.14,3.64,13.01
		c1.6,2.15,3.44,3.73,6.39,2.67c3-1.08,3.63-2.73,1.89-5.4c-1.21-1.88-2.7-3.57-3.95-5.42c-0.83-1.22-2.11-2.35-1.41-4.12
		c1.13-2.51,2.13-0.53,2.71,0.26c1.97,2.73,4.39,4.19,7.88,4.34c1.49,0.06,2.23-0.59,3.34-1.1c3.86-1.8,7.84-2.3,11.81-0.18
		c0.61,0.32,1.32,0.9,1.87,0.79c6.62-1.23,12.36,2.44,18.59,3.2c4.63,0.56,9.34,0.32,13.99,0.71c3.44,0.29,6.51,2.2,10.09,2.41
		c7.03,0.41,13.17,4.85,20.4,4.73c3.93-0.07,7.9,1.29,10.89-3.03c1.78-2.56,6.67-1.19,7.82,2.26c1.31,3.93,3.18,2.65,5.31,1.19
		c1.27-0.87,2.79-1.66,3.58-2.88c3.53-5.46,8.15-4.65,12.83-2.25c2.52,1.29,5.46,1.02,7.83,2.83c2.32,1.77,3.45,3.9,2.39,6.51
		c-0.63,1.55-0.57,2.4,0.82,2.94c4.34,1.68,8.75,3.62,13.46,1.8c1.53-0.59,2.02,0.38,2.91,0.82c0.93,0.46,1.67,2.07,2.85,1.07
		c4.64-3.97,11.77-1.59,16.12-6.66c1.44-1.68,4.6-1.95,3.06-5.28c2.13-1.9,4.3-0.57,6.46-0.08c1.2,0.89,2.79,1.22,3.73,2.51
		c-2.54,10.27-12.31,18.97-23,18.71c-13.77-0.35-27.56,0.03-41.33-0.15c-9.29-0.13-18.32-2.48-27.41-4.1
		c-39.42-7.01-78.83-13.77-119.16-11.88c-25.18,1.18-50.13,4.08-74.57,10.17c-17.99,4.49-36.04,6.89-54.56,6.05
		c-8-0.36-16.03-0.32-24.04-0.23C855.01,699.52,847.62,694.99,842.94,685.88z"/>
	<path class="st38" d="M1097.82,789.69c-3.07,1.91-6.56,3.06-9.32,5.54c-1.86,1.67-3.41,3.45-3.37,5.99
		c0.03,2.03-0.82,2.5-2.66,2.83c-30.63,5.54-61.16,4.88-91.67-1c-42.98-8.28-81.03-26.78-114.36-55.02
		c-9.43-7.99-18.23-16.69-25.42-26.83c-0.78-1.1-3.47-2.79-1.27-3.82c1.79-0.84,5.19-2.39,6.88,1.25
		c4.04,8.67,10.63,15.05,18.41,20.34c0.46,0.32,0.92,0.65,1.42,0.9c6.63,3.27,11.88,7.94,16.68,13.68
		c8.49,10.15,20.86,14.88,32.23,20.94c12.69,6.76,26.09,10.15,40.5,9.15c1.26-0.09,2.64,0.06,3.74-0.43
		c5.82-2.56,10.04-0.58,14.62,3.47c11.97,10.58,25.64,10.84,39.73,4.71c3.35-1.46,5.97-1.55,9.39,0.14
		c19.89,9.79,39.57,8.65,58.87-1.95c0.98-0.54,1.94-1.12,2.91-1.68C1096.28,788.11,1097.94,787.58,1097.82,789.69z"/>
	<path class="st39" d="M1052.07,782.08c-3.18-0.12-5.86-1.65-8.6-3.03c-2.62-1.32-5.07-2.47-2.46-6.15c1.14-1.61-0.02-3.73-1.6-4.75
		c-9.92-6.4-18.65-14.7-30.23-18.49c-6.62-2.17-12.94-1.4-19.34,0.48c-1.78-1.45-1.78-1.45-0.1-4.41c0.26-5.72-4.03-8.31-7.84-11.08
		c-12.72-9.24-27.24-13.59-42.7-15.04c-7.93-0.74-15.89-1.09-24.94-1.68c2.25-1.52,3.88-1.36,5.35-1.45
		c19.53-1.17,38.99,0.49,58.46,1.55c5.63,0.31,9.75,3.85,13.33,7.96c3.25,4.27,5.38,9.17,7.9,13.86c0.87,1.61,1.69,3.35,3.85,3.5
		c7.8,0.56,14.98,3.65,22.43,5.56c7.66,1.96,15.34,1.19,23.02,1.45c3.36,0.12,6.73-0.24,10.09,0.14c5.94,1.27,11.52,0.14,16.88-2.52
		c0.37-0.15,0.77-0.21,1.17-0.22c3.27,0.71,5.95-1.09,8.75-2.18c7-2.72,13.78-5.86,18.13-12.47c0.27-0.29,0.58-0.54,0.91-0.77
		c1.29-0.55,1.9-1.81,2.85-2.72c0.73-0.7,1.57-1.64,2.65-0.39c0.67,1.58,0.11,3.01-0.56,4.43c-8.62,18.33-23.08,29.4-42.61,34
		c-4.02,0.95-6.24,2.8-6.82,7.16C1059.33,780.1,1057.91,781.02,1052.07,782.08z"/>
	<path class="st40" d="M841.11,581.02c1.56-11.36,5.67-21.99,10.51-32.17c30.52-64.08,81.25-102.06,150.7-115.32
		c26.3-5.02,52.55-4.41,78.6,1.99c-0.62,2.12-2.3,1.49-3.78,1.51c-4.45,0.05-8.9-0.42-13.34,0.28c-6.4,0.56-12.78-0.51-19.18-0.19
		c-13.09,0.64-26.27,0.15-39.15,3.26c-8.74,0.26-16.71,4.1-25.22,5.42c-6.97,2.17-13.65,5.11-20.45,7.72
		c-10.15,5.63-20.69,10.56-30.46,16.88c-4.95,2.39-9.33,5.53-12.97,9.67c-0.27,0.29-0.57,0.55-0.88,0.78
		c-7.74,6.05-15.24,12.34-21.01,20.42c-0.18,0.34-0.4,0.64-0.66,0.93c-1.7,1.67-3.44,3.29-4.88,5.21c-1.2,1.17-2.38,2.37-3.51,3.6
		c-3.86,4.96-7.85,9.81-11.3,15.07c-3.52,5.44-7.47,10.62-9.8,16.75c-0.65,1.63-1.5,3.17-2.25,4.75c-2.53,2.68-4.33,5.73-4.76,9.47
		c-0.12,0.38-0.28,0.73-0.47,1.07c-1.27,1.7-1.05,4.27-3.15,5.5c-4.24,5.22-6.66,11.44-9.62,17.36c-0.5,0.99-0.63,2.37-2.04,2.27
		C840.65,583.15,840.83,582.02,841.11,581.02z"/>
	<path class="st41" d="M793.09,567.91c-1.47-8.45,0.37-16.46,2.62-24.4c5.48-19.34,14.92-36.89,24.41-54.44
		c10.07-18.64,20.74-37.02,25.75-57.93c1.25-5.23,2.07-5.46,7.45-4.45c2.22,0.42,4.51,0.76,6.66-0.08c2.31-0.91,2.43,0.43,2.26,1.98
		c-1.22,10.96-4.33,21.41-8.83,31.45c-0.53,1.18-1.85,2.08-2.94,2.93c-6.56,5.14-10.35,11.82-10.76,20.14
		c-0.19,3.78-1.71,6.16-4.91,8.11c-10.53,6.38-16.5,15.45-15.63,28.2c0.2,2.91-0.72,5.15-2.86,7.09
		c-7.92,7.18-12.98,16.03-15.83,26.34C798.99,558.22,796.54,563.3,793.09,567.91z"/>
	<path class="st42" d="M1097.82,789.69c-0.89-0.6-1.79-1.2-2.68-1.79c3.38-2.62,6.76-5.24,10.14-7.86c2.35-0.68,3.19-2.98,4.73-4.51
		c1.3-1.29,2.5-2.59,4.32-3.1c4.95-3.26,10.79-5.1,15.08-9.41c1.08-1.09,2.24-2.12,2.86-3.57c9.01-9.33,14.68-21.69,26.17-28.77
		c3.69-2.27,7.1-5.1,11.65-5.53c2.7,0.07,4.66-1.71,6.9-2.8c0.55-0.26,1.12-0.43,1.72-0.51c6.71-1.36,13.64-1.73,20.05-4.47
		c0.41-0.16,0.84-0.24,1.28-0.26c3.87-0.29,7.7,0.69,11.56,0.4c2.22,2.01-0.31,2.15-1.11,2.21c-4.46,0.35-7.66,3.21-11.33,5.21
		c-6.89,3.75-11.98,9.66-17.79,14.66c-9.66,8.33-19.35,16.62-29.54,24.27c-8.28,6.22-16.96,11.87-25.96,17.02
		c-3.76,2.15-7.89,3.44-12.09,4.49C1108.47,786.81,1103.14,788.25,1097.82,789.69z"/>
	<path class="st43" d="M879.15,368.5c7.48-6.38,16.03-11.02,24.85-15.42c-3.8,5.79-7.71,11.4-12.13,16.69
		c-6.38,7.64-12.53,15.48-18.76,23.24c-3.44,4.28-7.9,7.07-12.93,9.11c-6.92,2.81-7.58,4.43-4.98,11.56
		c0.37,1.02,0.66,2.07,0.98,3.08c-0.44,0.19-0.77,0.45-0.91,0.38c-7.3-4.28-13.47-0.84-17.42,6.9c-3.62,7.1-6.21,14.71-9.51,21.98
		c-8.36,18.41-18.85,35.71-28.28,53.56c-1.88,3.56-3.71,7.13-6.04,10.6c-0.74-3.98-0.4-7.84,0.81-11.64
		c1.15,0.88,0.86,1.84,0.73,2.09c0.93-2.7,2.66-6.05,3.23-9.82c4.17-11.93,8.95-23.62,14.16-35.13
		c8.51-18.79,19.21-36.3,32.82-51.79c10.35-11.77,19.87-24.42,32.53-34C878.76,369.54,879.05,369.08,879.15,368.5z"/>
	<path class="st44" d="M949.18,731.5c9.26-0.03,17.06,3.98,24.51,8.9c1.73,1.14,1.51,2.3-0.38,2.94
		c-5.83,1.96-11.29,3.97-17.49-0.24c-6.87-4.67-15.07-6.71-23.26-8.17c-3.26-0.58-6.11,0.35-6.68,4.03
		c-0.59,3.84,2.47,4.64,5.31,5.14c8.74,1.54,16.2,5.17,21.84,12.31c3.83,4.85,9.41,7.99,13.05,13.11c1.72,2.42,1.61,3.14-1.49,3.4
		c-7.34,0.62-7.6,0.86-11.02-6.09c-4.01-8.13-9.91-13.74-18.57-16.63c-2.91-0.97-4.92-0.7-6.33,2.05c-1.5,2.94,0.81,4.28,2.73,5.19
		c6.15,2.89,11.17,6.77,13.42,14.07c-9.14-2.65-16.7-7.01-21.23-15.59c-2.5-4.72-4.97-9.45-8.43-13.57
		c-1.73-2.06-3.65-3.89-6.45-4.46c-1.96-0.4-4.05-0.99-5.32,1.11c-1.32,2.18-0.9,4.34,0.97,6.1c2.67,2.51,5.23,5.11,7.01,8.35
		c0.46,0.83,0.81,1.72,1.66,3.54c-7.67-4.94-13.8-10.13-17.99-17.12c-3.07-5.12-7.28-8.31-12.7-10.43
		c-5.59-2.19-10.33-5.69-13.81-10.67c-0.81-1.16-2.7-2.47-1.42-3.96c1.48-1.72,3.36-0.57,4.87,0.56c0.53,0.4,0.91,1,1.36,1.51
		c1.45,2.58,3.99,3.96,6.42,5.22c4.71,2.45,9.63,4.5,14.71,6.12c7.39,2.38,14.98,4.3,22.71,3.3c8.26-1.06,16.22-0.02,24.24,1.47
		C944.16,733.49,947.05,734.32,949.18,731.5z"/>
	<path class="st45" d="M1113.8,785.37c9.81-4.54,19.22-9.82,28.17-15.86c5.57-3.76,10.77-8.06,16.18-12.06
		c10.12-7.47,19.27-16.11,28.7-24.39c4.94-4.34,10.3-7.91,15.53-11.77c3.23-2.38,6.94-1.69,10.07-3.4c1.35-0.71,2.52-0.6,3.39,0.77
		c-9.25,10.77-19.71,20.32-30.44,29.52c-13.85,11.87-28.3,22.98-44.7,31.23C1132.24,783.66,1123.14,785.1,1113.8,785.37z"/>
	<path class="st46" d="M1052.07,782.08c1.36-2.3,5.37-1.03,5.97-4.51c0.15-0.88,0.92-1.7,0.88-2.73c-0.19-5.24,2.71-7.38,7.54-8.48
		c11.62-2.64,21.87-8.03,30.75-16.12c2.19-1.99,3.38-4.52,4.65-6.8c2.66-4.77,6.79-8.82,7.72-14.51c-0.89-1.59,0.68-2.75,0.73-4.17
		c0.24-0.53,0.54-1,1.17-1.1c3.59,28.76-18.17,56.74-45.87,58.97c-3.88,0.24-7.77,0.29-11.65-0.03
		C1053.24,782.78,1052.61,782.57,1052.07,782.08z"/>
	<path class="st47" d="M891.9,471.53c-8.88,9.29-18.37,18-26.28,28.19c-3.6,4.63-7.3,9.18-10.89,13.82
		c-2.38,3.09-5.19,5.32-9.19,6.01c-3.02,0.52-6.06,1.25-8.89,2.39c-3.5,1.4-4.51,0.09-4.41-3.16c1.32-6.22,6.19-9.1,11.29-11.49
		c3.54-1.66,7.28-2.92,10.61-5.05c5.16-3.3,6.82-7.22,5.71-13.27c-0.23-1.24-0.61-2.45-0.82-3.69c-0.67-3.98,0.44-6.47,3.96-8.39
		c2.97-1.62,6.18-2.67,9.51-3.24c8.67-1.5,14.59-10.13,9.62-18.98c-0.65-1.16-1.62-2.44-0.22-3.79c1.93,0.09,3.43,1.14,4.93,2.2
		c1.82,0.99,2.96,2.54,3.36,4.55C891.11,462.21,892.95,466.69,891.9,471.53z"/>
	<path class="st48" d="M1178.58,722.87c-0.5,0.04-1.01,0.09-1.51,0.13c-2.44,0.79-4.75,1.86-6.96,3.17
		c-10.25,3.34-18.15,9.94-24.4,18.45c-3.94,5.37-8.25,10.38-12.63,15.36c-4.85,4.85-10.31,8.78-16.86,11.04
		c-0.85-0.16-1.64-0.4-1.63-1.5c7.85-8.49,14.28-18.01,20.25-27.87c7.62-12.59,18.24-21.25,32.91-24.18
		c7.6-1.51,15.36-1.41,23.08-1.06c2.04,0.49,4.13,0.08,6.18,0.25c0.84,0.07,2.11-0.42,2.01,1.24l0,0.07
		c-3.86,1.09-7.85,1.67-11.76,2.35C1184.2,720.87,1181.43,721.9,1178.58,722.87z"/>
	<path class="st49" d="M879.15,368.5c-0.65,3.65-4.13,4.92-6.31,7.22c-17.27,18.23-34.32,36.61-47.26,58.35
		c-9.14,15.36-16.04,31.75-22.41,48.4c-1.08,2.82-2.79,5.4-3.31,8.44c-2.57-0.35-3.61-1.6-2.47-4.15
		c2.42-11.54,6.33-22.6,11.16-33.33C824.24,418.59,847.73,390.25,879.15,368.5z"/>
	<path class="st50" d="M881.9,450.88c0.53,2.83,2.8,4.88,3.21,7.83c1.22,8.9-4.35,14.28-11.73,16.16c-2.44,0.62-4.92,1.09-7.32,1.84
		c-5.45,1.69-6.92,4.38-5.29,10.17c1.81,6.42,0.86,11.95-4.87,15.88c-2.61,1.79-5.41,3.36-8.48,4.34
		c-6.47,2.05-11.55,5.93-15.17,11.68c-0.85-7.38,2.26-13.6,8.67-17.19c1.46-0.82,3.02-1.45,4.55-2.15
		c6.85-3.15,8.05-5.27,7.24-12.77c-0.96-8.9,2.4-14.36,10.82-17.52c1.44-0.54,2.93-0.94,4.4-1.39c7.84-2.42,8.78-3.76,8.44-11.97
		C876.18,451.7,877.58,450.47,881.9,450.88z"/>
	<path class="st51" d="M1111.49,723.66c-0.11,0.4-0.22,0.81-0.34,1.21c-2.51,2.5-3.83,5.98-6.73,8.16l0.09,0.1
		c-8.03,6.74-17.29,11.15-27.17,14.41c-4.56-0.2-8.67,1.63-12.9,2.91c-1.63,0.13-3.05,1.07-4.69,1.17
		c-8.52,0.2-17.03,0.69-25.55,0.11c-8.68-0.59-16.76-3.7-25.02-6.03c-0.67-0.19-1.38-0.84-1.93-0.71c-7.71,1.86-9.12-4.43-11.6-9.08
		c-1.69-3.16-2.85-6.6-4.24-9.92c12.03,12.85,27.2,19.24,44.44,20.34c25.22,1.61,48.4-4.58,68.78-20.02c1.68-1.27,3.39-2.5,5.1-3.73
		C1111.1,721.6,1111.36,722.54,1111.49,723.66z"/>
	<path class="st52" d="M956.9,419.03c3.94,2.78,7.69,6.63,9.57,9.91c-12.58,4.25-24.22,10.5-35.96,16.51
		c-3.33,1.69-6.56,0.82-9.63-0.64c-3.01-1.44-5.99-2.96-8.69-4.97c-0.25-2.95,2.25-3.6,4.08-4.53c5.11-2.58,10.1-5.42,15.45-7.53
		c1.83-0.72,3.88-1.42,5.11-2.82C942.32,418.66,949.77,419.48,956.9,419.03z"/>
	<path class="st53" d="M1183.02,451.05c3.64,4.79,3.36,6.53-1.91,8.74c-7.97,3.34-15.66,3.6-22.98-2.11
		c-5.4-4.22-11.1-8.07-16.79-11.9c-2.82-1.9-4.22-4.25-4.26-7.65c-0.04-4.06-0.37-8.11-0.57-12.17c3.57,2.65,6.37,6.09,9.43,9.25
		c0.71,1.55,1.61,2.93,3.39,3.43c5.86,4.54,11.88,8.79,18.68,11.9c3.43,1.57,6.7,1.82,10.13,0.61
		C1179.81,450.56,1181.38,450.37,1183.02,451.05z"/>
	<path class="st54" d="M817.13,609.65c1.34-1.04,2.67-2.08,4.01-3.12c2.02-0.66,1.99,0.72,2,2.03c0.02,2.52,0.09,5.05-0.01,7.57
		c-0.41,11.19,0.84,22.38,0.02,33.57c-0.07,0.97,0.06,1.97-0.38,2.89c0.12,1.35-0.13,2.52-1.54,3.11c-1.98,1.16-3.47,0.12-4.89-1.11
		c-3.47-3.01-6-6.76-7.17-11.11c-0.59-2.2-1.68-3.21-3.47-3.99c4.34-4.22,4.92-9.82,6.08-15.37
		C812.84,619.11,814.44,614.13,817.13,609.65z"/>
	<path class="st55" d="M798.62,598.37c-2.45-7.43-0.44-13.8,4.62-19.44c1.31-1.46,2.57-2.99,4.01-4.32
		c5.95-5.45,9.37-11.76,7.8-20.17c-0.58-3.1,0.23-6.15,2-8.85c0.96-1.46,2.06-2.72,4.1-2.22c0.79,0.79,1.68,1.6,1.87,2.71
		c1.26,7.31,4.04,14.57,0.77,22.04c-2.9,6.09-7.44,10.76-12.9,14.58c-2.98,2.09-4.58,5.22-6.52,8.11
		C802.61,593.44,801.33,596.45,798.62,598.37z"/>
	<path class="st56" d="M822.66,568.42c2.89-8.56-0.06-16.76-1.5-25.06c7-1.96,13.96-4.02,21.62-7.02
		c-5.62,13-10.44,25.55-15.06,38.17c-1.61,1.62-1.69,3.93-2.6,5.87c-0.42,0.89-0.82,1.87-2.04,1.7c-1.35-0.19-4.22-7.46-3.17-8.22
		C821.85,572.46,821.78,570.24,822.66,568.42z"/>
	<path class="st57" d="M1183.02,451.05c-2.39-0.27-4.12,1.51-6.29,2.01c-7.13,1.64-12.19-2.85-17.61-5.93
		c-3.79-2.16-7.1-5.13-10.63-7.74c-1.02-1.23-1.89-2.63-3.41-3.37c-2.69-3.49-6.9-5.69-8.57-10.05c-1.35-2.2-1.63-5.49-0.39-6.66
		c1.59-1.49,4.34,0.33,6.39,1.48c6.11,3.41,9.36,9.02,11.78,15.3c3.14,8.15,3.18,8.17,11.77,7.05
		C1173.42,442.18,1179.31,444.25,1183.02,451.05z"/>
	<path class="st58" d="M956.9,419.03c-2.58,1.71-5.35,2.4-8.41,1.62c-2.05-0.52-4.04-0.14-5.5,1.26c-7.2,6.93-17.03,9.11-25.3,14.1
		c-1.89,1.14-3.92,2.05-5.65,3.47c-0.44,0.66-1.1,0.97-1.84,1.13c-5.32,0.06-6.2-0.54-6.59-4.46c1.98-4.43,5.53-6.77,10.21-7.48
		c1.93-0.3,3.9-0.5,5.85-0.52c8.23-0.08,14.02-3.77,17.77-11.15c2.15-4.23,4.81-5.07,9.47-3.79
		C950.74,414.27,954.27,415.9,956.9,419.03z"/>
	<path class="st59" d="M1245.8,560.18c5.14,1.44,9.84,3.68,13.75,7.43c6.43,6.18,7.21,15.43,1.8,21.89
		c-1.97,0.54-2.29-1.25-2.96-2.28c-4.33-6.69-9.95-12.14-16.04-17.17c-1.95-1.89-4.14-3.56-5.44-6.04
		c-0.44-4.06,0.18-4.77,4.02-4.27C1242.55,559.95,1244.19,559.87,1245.8,560.18z"/>
	<path class="st60" d="M1216.83,486.59c2.38,3.82,1.77,8.04,1.64,12.2c-0.07,2.19-1.37,2.31-3.17,2.02
		c-8.46-1.37-16.19-3.97-21.92-10.96c-3.67-4.48-7.86-8.53-11.36-13.6c4.09-1.29,7.82-1.55,11.54-1.83
		c-2.04,6.1,1.19,8.54,6.58,9.48c0.27,0.05,0.51,0.23,0.76,0.36c1.71,0.86,3.23,2.02,4.77,3.15c1.6,1.17,3.33,1.99,5.13,0.26
		C1212.68,486.56,1214.68,486.13,1216.83,486.59z"/>
	<path class="st61" d="M1242.88,569.31c7.97,5.07,13.37,12.49,18.46,20.19c-0.05,0.4,0.04,0.89-0.16,1.19
		c-3.58,5.45-4.39,11.47-3.65,17.8c0.12,1.05,0.69,2.39-1.35,1.74c-0.74-1.01-1.37-2.13-2.42-2.88c-6.26-4.5-8.09-11.22-8.79-18.31
		c-0.52-5.19-1.78-10.19-2.88-15.25C1241.76,572.24,1240.82,570.49,1242.88,569.31z"/>
	<path class="st62" d="M1242.88,569.31c-0.57,3.14,1.11,5.87,1.61,8.82c0.53,3.15,1.3,6.26,1.68,9.42
		c0.9,7.35,1.71,14.67,9.05,18.93c1.53,0.89,1.16,2.37,0.96,3.75c-8.68-4.15-15.26-10.09-17.23-20.02c-1.49-7.51-3.06-15-4.6-22.5
		c-0.76-1.57-0.15-3.31-0.64-4.94c-0.28-0.94-0.19-2.23,0.86-2.55c1.39-0.43,1.78,0.89,2.29,1.9c0.37,0.72,0.28,1.68,1.09,2.17
		C1239.6,565.96,1241.24,567.64,1242.88,569.31z"/>
	<path class="st63" d="M1245.27,529.3c2.08,3.83,1.4,7.88,0.91,11.9c-0.31,2.59-1.84,2.07-3.68,1.53
		c-12.13-3.53-22.54-9.14-27.36-21.84c-0.58-1.54-1.56-2.92-2.75-5.08c4.84,0.72,9.21-0.15,13.45,1.35
		c0.17,0.26,0.27,0.58,0.09,0.75c-4.27,4.13-4.27,4.13,1.33,7.17c0.86,0.46,1.72,0.91,2.45,1.57c1.91,1.95,4.32,3.15,6.7,4.39
		c1.95,0.05,3.97,0.52,5.69-0.9C1243.09,529.58,1244.1,529.13,1245.27,529.3z"/>
	<path class="st64" d="M822.66,568.42c0.18,2.2,0.59,4.44-1.97,5.74c-0.56,0.28-1.25,1.47-0.54,1.58c3.59,0.57,2.09,3.68,3.05,6
		c2.02-2.37,1.85-5.75,4.53-7.24c-1.58,11.44-11.16,16-18.99,22.06c-1.54,1.19-3.36,2.06-4.81,3.35c-2.74,2.42-4.55,2.43-5.3-1.56
		c3.5-6.53,6.87-13.05,13.07-17.71C816.08,577.35,819.97,573.37,822.66,568.42z"/>
	<path class="st65" d="M1092.69,409.05c-0.59-1.57-1.17-3.15-1.78-4.72c-1.79-4.55-1.46-5.19,3.49-4.07
		c12.65,2.88,20.43,11.39,25.39,22.92c0.51,1.67-0.83,1.55-1.68,1.55c-2.7,0-5.36-0.44-7.63-1.98c-4.64-3.15-9.17-6.46-14.03-9.27
		C1094.66,412.46,1093.73,410.71,1092.69,409.05z"/>
	<path class="st66" d="M1260.39,640.51c0.79,6.91-1.85,12.32-7.4,16.32c-3.8,2.74-7.08,1.95-9.4-2.21
		c-1.81-3.24-2.58-6.78-2.54-10.5c0.07-6.45,0.04-12.9,0.11-19.35c0.02-1.48-0.68-3.57,0.74-4.24c1.28-0.6,2.73,0.88,3.87,1.9
		c-3.01,5.5-1.53,13.77,3.11,18.16c2.1,1.99,4.19,2.58,6.84,1.15C1257.14,640.97,1258.52,639.71,1260.39,640.51z"/>
	<path class="st67" d="M1086.91,723.06c-11.87,6.03-23.49,8.72-35.65,9.06c-6.03,0.17-12.08-0.04-18.12-0.25
		c-1.41-0.05-3.41-0.11-3.51-2.24c-0.11-2.29,1.91-2.73,3.51-2.85c5.46-0.43,10.95-0.53,16.41-0.91
		c11.07-0.78,22.18-1.13,33.18-2.78C1083.75,722.92,1084.81,723.06,1086.91,723.06z"/>
	<path class="st68" d="M1092.69,409.05c5.72,4.68,12.49,7.83,18.15,12.63c2.51,2.13,5.8,1.94,8.95,1.51
		c1.64,3.44,2.36,7.08,2.51,11.07c-1.8,0.41-3.03-0.62-4.36-1.17c-5.3-2.18-10.53-4.53-15.91-6.48c-4.54-1.65-7.3-4.39-7.71-9.36
		C1094.08,414.47,1092.6,411.91,1092.69,409.05z"/>
	<path class="st69" d="M1037.59,405.94c3.03,2.7,5.45,5.89,8.22,10.23c-8.82,0-16.95,0.01-25.09-0.01c-1.43,0-2.24-1.05-2.96-2.09
		c-2.61-3.79-5.2-7.59-7.79-11.39c0.74-1.43,2.11-1.37,3.31-1.11c5.84,1.28,12.06,1.24,17.15,5.14
		C1032.95,408.63,1035.22,406.35,1037.59,405.94z"/>
	<path class="st58" d="M1037.59,405.94c-3.02,3.92-5.9,4.43-9.08,1.19c-1.81-1.84-4.25-1.96-6.29-2.59c-3.9-1.2-8.15-1.3-12.25-1.86
		c-5.07-6.27-4.61-7.55,3.22-8.83c8.11-1.32,14.46,2.15,20.07,7.51C1034.78,402.81,1036.16,404.41,1037.59,405.94z"/>
	<path class="st70" d="M1260.39,640.51c-1.33,1.22-3.08,1.77-4.57,2.77c-3.35,2.25-9.44-1.18-11.12-6.26
		c-1.18-3.56-1.96-7.23-1.92-11.09c0.02-2.32,0.84-3.33,3-3.52c4.68,2.17,9.13,4.65,12.04,9.14
		C1259.58,634.29,1260.86,637.15,1260.39,640.51z"/>
	<path class="st71" d="M995.94,410.41c2.67,2.43,5.02,5.13,7.25,8.54c-5.82,1.16-11.24,2.19-16.65,3.32c-3.42,0.71-6.07-0.39-8-3.21
		c-1.65-2.42-3.18-4.91-4.77-7.37c0.53-1.63,1.93-1.99,3.34-2.06C983.41,409.34,989.7,409.35,995.94,410.41z"/>
	<path class="st72" d="M1053.81,402.94c-2.88-3.36-5.76-6.71-8.75-10.19c9.67-3.57,19.63,0.63,27.28,11.13
		c0.32,0.32,0.29,0.71,0.28,1.14c-0.01,1.55,1.37,3.34-0.57,4.56c-1.86,1.17-3.79,0.69-5.53-0.37
		C1062.46,406.74,1057.93,405.25,1053.81,402.94z"/>
	<path class="st73" d="M1238.02,471.2c-9.58-7.3-16.54-15.17-16.28-27.25c0.02-1.05-0.49-2.48,0.65-3.07
		c1.36-0.7,2.36,0.58,3.24,1.38C1233.93,449.79,1238.17,459.12,1238.02,471.2z"/>
	<path class="st74" d="M1053.81,402.94c4.57-0.03,8.24,2.4,11.95,4.56c4.96,2.88,5.13,2.85,5.43-2.58c0.02-0.37,0.75-0.69,1.15-1.04
		c3.33,3.68,5.43,8.08,7.31,12.59c0.84,2.02,1.4,3.61-2.27,3.09c-15.16-2.15-15.18-2.02-22.85-15.14
		C1054.25,403.95,1054.05,403.44,1053.81,402.94z"/>
	<path class="st58" d="M995.94,410.41c-2.45,1.42-5.05,0.98-7.69,0.74c-4.83-0.45-9.72-1.57-14.47,0.54
		c-1.63-2.23-3.17-4.54-4.91-6.68c-1.91-2.35-0.73-3.31,1.48-4.2c7.41-2.97,17.07-0.23,23.2,6.67
		C994.38,408.42,995.14,409.43,995.94,410.41z"/>
	<path class="st75" d="M992.33,763.36c6.39-0.38,12.08,2.01,17.81,4.37c2.7,1.11,5.48,2.04,9.1,3.38
		c-5.46,2.47-10.57,3.54-15.88,4.38c-6.13,0.97-10-2.05-13.55-6.2c-0.3-1.33-1.23-2.51-1.01-3.97
		C989.13,763.17,990.32,762.52,992.33,763.36z"/>
	<path class="st76" d="M1276.14,628.83c-0.66-5.79-0.43-10.49-1.84-14.63c-2.96-8.72,1.82-15.37,4.78-22.6
		c0.4-0.97,1.01-1.39,1.88-0.62c1.45,1.27,3.32,2.36,3.04,4.7C1282.71,606.63,1280.44,617.35,1276.14,628.83z"/>
	<path class="st77" d="M1200.65,485.04c-1.29-0.45-2.55-0.99-3.87-1.33c-6.33-1.63-6.96-3.42-3.22-9.3
		c10.32-1.02,18.9,3.47,23.27,12.18c-1.78,1.34-4.07,1.02-6,1.87c-1.63,1.34-3.18,0.79-4.43-0.47
		C1204.78,486.34,1202.68,485.79,1200.65,485.04z"/>
	<path class="st78" d="M949.18,731.5c0.76,3.25-0.24,4.15-3.67,3.51c-9.73-1.83-19.46-3.37-29.51-2.03
		c-7.75,1.04-15.12-1.57-22.35-4.19c0.35-2.04,1.71-0.92,2.73-0.88c5.14,1.79,10.47,0.95,15.69,0.84
		c10.93-0.23,21.81-0.11,32.62,1.77C946.19,730.79,947.68,731.17,949.18,731.5z"/>
	<path class="st79" d="M1229.22,527.35c-1.1-1.13-2.75-0.96-4.07-1.87c-1.91-1.32-4.51-1.86-4.32-4.82c0.2-3.07,3.34-2.31,5.02-3.49
		c3.46,0.85,7.13,0.63,10.46,2.28c4.31,2.14,7.66,5.05,8.97,9.86c-0.31,1.42-1.78,0.58-2.47,1.26c-2.17,1.35-4.43,1.57-6.81,0.62
		C1234.23,529.05,1231.56,528.49,1229.22,527.35z"/>
	<path class="st80" d="M817.13,609.65c0.31,3.12-1.26,5.8-2.28,8.53c-1.8,4.84-2.48,9.92-3.54,14.89c-0.72,3.38-2.12,5.37-5.2,6.44
		c-0.57,0.99-1.36,1.11-2.31,0.59c-1.68-10.62,2.05-19.41,9.22-26.99C814.24,611.81,815.75,610.8,817.13,609.65z"/>
	<path class="st81" d="M1263.44,518.1c-6.57-6.68-12.78-13.48-14.12-23.22c-0.17-1.23-0.95-2.81,0.14-3.56
		c1.42-0.98,2.54,0.68,3.57,1.44C1261.57,499.05,1263.51,508.16,1263.44,518.1z"/>
	<path class="st82" d="M901.55,377.11c4.78,7.01,1.96,19.86-7.72,22.94c-1.65,0.53-3.31,0.83-4.95,0.39
		c-1.33-0.35-2.89-0.97-2.99-2.57c-0.12-1.85,1.61-1.97,2.95-2.34c6.23-1.73,7.21-3.26,6.36-10.01c-0.12-0.96,0.2-1.58,0.8-2.23
		C897.77,381.35,899.52,379.37,901.55,377.11z"/>
	<path class="st83" d="M891.9,471.53c-1.08-4.8-2.26-9.59-3.17-14.42c-0.3-1.59-1.1-2.77-1.9-4.03c4.9,2.23,9.8,4.46,14.71,6.68
		c1.83,0.83,1.83,1.86,0.4,3.09C898.59,465.74,895.25,468.63,891.9,471.53z"/>
	<path class="st84" d="M989.73,745.72c0.01,1.47-1.11,2.96,0.1,4.41c-4.38,3.2-8.66,6.46-11.35,11.37
		c-1.11,2.03-2.32,2.25-4.08,0.24c-5.21-5.97-5.25-5.79,2.17-8.96C981.14,750.82,986.1,749.48,989.73,745.72z"/>
	<path class="st85" d="M910.39,439.66c0.55-0.06,1.11-0.12,1.66-0.18c2.57-0.31,4.41,1.39,6.32,2.58c3.76,2.34,7.76,3.48,12.14,3.39
		c-8.35,5.17-16.62,4.61-24.6-1.67C906.17,441.06,908.39,440.48,910.39,439.66z"/>
	<path class="st86" d="M803.8,640.1c0.77-0.2,1.54-0.39,2.31-0.59c1.72,0,3.01-0.36,3.73,2.35c1.2,4.54,3.64,8.69,7.35,11.92
		c1.22,1.07,2.45,1.8,4.05,1.91c-2.12,3.5-5.03,2.44-7.49,0.87C807.79,652.75,804.39,647.23,803.8,640.1z"/>
	<path class="st87" d="M841.11,581.02c0.41,0.66,1.43,2.42,1.51,0.66c0.17-3.57,2.48-5.75,4.02-8.38c2.08-3.56,2.79-7.99,6.46-10.58
		c0.67,0.6,0.91,1.36,0.88,2.24c-1.46,5.01-4.26,9.53-5.43,14.65c-2.89,3.31-4.67,7.26-6.35,11.26c-0.13,0.38-0.31,0.73-0.51,1.07
		c-1.42,1.82-0.82,4.3-2.01,6.18c-0.08,0.26-0.12,0.52-0.12,0.79c-2.5-1.29-0.82-3.32-0.9-5.04
		C838.69,589.44,839.83,585.21,841.11,581.02z"/>
	<path class="st88" d="M1257.7,531.46c3.29,3.27,5.81,6.86,8.12,10.64c0.94,1.53,0.04,2.28-0.95,3.14
		c-1.46,1.26-1.78-0.32-2.55-0.94C1258.32,541.06,1255.61,537.36,1257.7,531.46z"/>
	<path class="st89" d="M1063.91,436.22c5.64-0.95,11.39,0.89,17.01-0.7c5.84,0.83,11.2,3.27,16.76,5.06
		c-1.05,2.41-2.59,1.48-4.12,0.59l-0.01,0c-5.39-1.07-10.84-1.77-16.16-3.19c-4.18-0.03-8.36-0.06-12.54-0.08
		C1063.49,437.92,1063.46,437.21,1063.91,436.22z"/>
	<path class="st90" d="M1237.96,564.29c-1.64-0.56-1.47-2.57-3.02-3.65c-1.2,2.36-0.15,4.81-0.59,7.08
		c-1.08-3.99-2.16-7.98-3.45-12.75c5.38,1.89,10.14,3.55,14.89,5.22c-1.56,0.73-3.36,1.07-4.88,0.59
		C1236.75,559.47,1237.25,561.7,1237.96,564.29z"/>
	<path class="st91" d="M822.77,652.58c-0.01-13.78,0.01-27.55-0.08-41.33c-0.01-1.64,0.9-3.8-1.56-4.72
		c1.63-1.83,2.51-1.64,2.52,0.93c0.03,6.58,0.1,13.17,0.09,19.75c-0.01,6.86,0.8,13.72,0.09,20.58
		C823.67,649.4,824.06,651.2,822.77,652.58z"/>
	<path class="st92" d="M1237.23,498.9c-4-3.75-6.44-7.65-6.54-12.72C1236.14,487.64,1237.07,489.37,1237.23,498.9z"/>
	<path class="st93" d="M896.38,727.91c-0.88,0.37-2.01-0.01-2.73,0.88c-5.51-1.68-10.81-3.87-15.78-6.76c-2-1.16-4.2-2.41-4.52-5.16
		C880.37,721.93,888.24,725.19,896.38,727.91z"/>
	<path class="st94" d="M838.66,593.87c0.6,1.63-0.57,3.57,0.9,5.04c-1.96,8.95-1.74,18.04-1.65,27.12c0.02,1.49-0.41,3.11,1.02,4.26
		c-0.62,0.37-1.24,0.74-1.86,1.11C836.61,618.86,836.29,606.31,838.66,593.87z"/>
	<path class="st95" d="M797.4,486.75c-0.49,2.16,1.72,2.72,2.47,4.15c-0.35,4.08-2.31,7.52-4.56,11.96
		c-0.24-2.08-0.36-3.2-0.49-4.32C795.57,494.59,795.78,490.52,797.4,486.75z"/>
	<path class="st96" d="M1280.59,554.05c0.15,4.68-1.41,8.06-2.34,11.77C1274.37,562.17,1274.37,562.17,1280.59,554.05z"/>
	<path class="st97" d="M1093.56,441.17c1.35-0.33,2.88,0.53,4.12-0.59c4.86,1.23,9.28,3.5,13.73,5.71
		c-4.11,0.37-7.77-1.47-11.4-2.81C1097.89,442.69,1094.74,444.43,1093.56,441.17z"/>
	<path class="st98" d="M1199.01,717.9c-2.48-1.86-5.65,0.05-8.19-1.49c8.25-0.62,16.46,0.59,24.7,0.48
		c2.24-0.03,1.47,0.94,0.32,1.77c-1.08-0.46-2.14-1.04-3.39-0.77C1207.97,717.9,1203.49,717.9,1199.01,717.9z"/>
	<path class="st99" d="M1114.59,769.52c0.56,0.33,1.12,0.65,1.68,0.98c1.2,1.97-1.12,2.01-1.66,3.03c-2.5,0.61-3.78,2.79-5.59,4.3
		c-1.12,0.93-1.79,2.69-3.75,2.21C1108.24,776.41,1110.62,772.26,1114.59,769.52z"/>
	<path class="st100" d="M910.39,439.66c-1.49,1.37-2.98,2.74-4.47,4.11c-2.52-2.01-5.23-3.97-2.3-7.62
		C904.73,439.51,907.42,439.85,910.39,439.66z"/>
	<path class="st101" d="M992.33,763.36c-2.81,0.09-2.59,1.99-2.58,3.98c0,0.65,2.1,1.33,0.06,1.95c-1.26-1.36-3.43-2.32-3.23-4.45
		C986.86,761.95,989.71,761.31,992.33,763.36z"/>
	<path class="st32" d="M1229.41,680.84c-1.31-0.28-2.92,0.08-3.49-1.71c0.87-1.33,2.01-2.47,2.59-4.03
		c0.38-1.02,1.09-1.94,2.45-1.13c0,0,0.17,0.15,0.17,0.15C1231.13,676.51,1231.05,678.87,1229.41,680.84z"/>
	<path class="st39" d="M1053.97,782.6c3.89-0.97,7.77-0.89,11.65,0.03C1061.74,783.93,1057.85,784.25,1053.97,782.6z"/>
	<path class="st102" d="M849.8,679.25c-2.34,2.73-6.1,0.48-8.65,2.47c-0.76-0.61-0.76-1.49-0.82-2.35
		C843.48,679.33,846.64,679.29,849.8,679.25z"/>
	<path class="st103" d="M1050.68,457.99c11.65-0.47,22.65,2.85,33.6,6.09c29.66,8.76,53.02,27.03,73.05,49.83
		c11.55,13.15,20.28,28.2,26.47,44.67c5.84,15.53,9.58,31.5,10.48,48.1c-11.81-3.6-23.6-7.25-35.42-10.79
		c-27.17-8.12-54.14-16.91-81.76-23.47c-48.83-11.6-95.89-6.59-141.46,14.2c-16.86,7.69-33.87,15.05-50.52,23.19
		c-0.49,0.24-1.08,0.28-1.62,0.41c-0.09-4.29-0.19-8.58-0.28-12.87c0.58-0.96,1.58-1.11,2.54-1.21c3.37-0.33,5.92-1.85,6.9-5.18
		c1.03-3.52-0.73-6.21-3.1-8.58c-0.4-0.4-0.89-0.67-1.37-0.97c-1.23-1.1-4.23-0.73-3.16-3.75c0.05-0.48,0.09-0.97,0.14-1.45
		c1.57-1.48,3.17-0.84,4.62,0.09c2.6,1.66,3.77,0.58,4.51-1.99c1.19-4.13,3.81-7.88,3.14-12.52c-0.17-1.13,0.35-2.26,1.59-2.7
		c1.13-0.41,1.82,0.4,2.51,1.11c0.48,0.5,0.86,1.12,2.29,1.37c-0.04-4.07,2.79-6.4,5.47-9.01c2.05-2,1.69-4.35-1.4-5.59
		c-1.02-0.41-2.27-0.87-1.88-2.34c0.35-1.31,1.63-1.61,2.71-1.56c4.42,0.21,8.2-1.52,12.1-3.82c-0.78-1.45-2.27-1.43-3.52-1.77
		c-1.63-0.45-3.36-0.38-4.98-0.83c-1.33-0.37-3.05-0.76-2.71-2.58c0.32-1.74,1.9-2.3,3.59-2.24c0.85,0.03,1.62,0.43,2.44,0.62
		c5.77,1.32,10.94,0.38,15.31-3.92c1.56-1.54,2.05-2.63-0.37-3.7c-1.58-0.7-3.27-1.71-2.71-3.71c0.58-2.02,2.67-1.66,4.31-1.79
		c2.12-0.16,4.15,0.45,6.14,0.97c0.73-1.28-0.45-1.92-0.56-2.83c-0.29-2.19,1.41-3.95,2.74-3.18c5.02,2.9,8.18-2.23,12.51-1.95
		c-0.29-1.64-1.65-1.77-2.36-2.57c-1.32-1.51-1.35-2.66,0.63-3.6c5.9-2.8,11.42-6.31,17.06-9.58c1.46-0.85,2.91-2.01,4.48-2.28
		c4.21-0.72,6.94-2.17,6.03-7.21c-0.24-1.36,1.11-2.56,2.77-2.58c1.59-0.01,2.1,1.15,2.4,2.47c0.25,1.1,0.07,2.25,0.71,4.17
		c1.01-3.35,1.93-6.06,2.57-8.73c1.28-5.29,1.04-5.35,6.46-5.69c-0.89-1.43-3.71-1.88-2.49-4.16c1.17-2.19,3.42-2.13,5.59-1.84
		c2.54,0.34,4.21,2.06,5.75,3.82c1.38-0.45,1.15-1.62,1.43-2.47c0.84-2.56,2.45-4.09,5.23-4.02c2.96,0.07,5.28-1.17,7.73-2.76
		c3-1.95,6.4-3.64,10.23-2.41c1.66,0.53,2.84-0.11,3.72-1.2c2.98-3.68,6.89-4.46,11.32-4.02
		C1045.09,457.92,1047.91,457.28,1050.68,457.99z"/>
	<path class="st104" d="M1230.96,673.98c-1.34,0.28-1.69,1.25-1.6,2.43c0.2,2.64-1.53,2.77-3.43,2.72c-2.34,0.76-4.4-1.1-6.69-0.73
		c-0.57-0.08-1.14-0.16-1.71-0.25c-1.2-2.08-3.72-1.14-5.31-2.33c-2.38,0.42-4.5-0.45-6.61-1.38c-1.67-2.69-4.91-0.13-6.81-2.03
		c-0.5-0.04-1.01-0.09-1.51-0.13c-1.48-1.24-3.54-0.63-5.11-1.58l0.03,0.02c-1.95-1.61-4.64-0.35-6.65-1.73
		c-3.51-0.81-7.02-1.64-10.21-3.43c-1.49-1.44-3.77-0.19-5.29-1.55c-2.45,0.42-4.51-0.61-6.51-1.8c-1.42-1.49-3.73-0.15-5.16-1.6
		c-8.89-2.41-17.87-4.51-26.62-7.35c-5.09-1.65-10.31-2.72-15.41-4.3c-11.57-3.6-23.26-6.83-34.94-10.04
		c-3.47-0.95-7.08-1.36-10.63-2.02c-2.13-1.1-4.68-0.47-6.8-1.62c-10.72-2.33-21.53-4.02-32.52-3.94
		c-11.06,0.08-22.24-0.37-33.16,1.05c-13.91,1.81-27.5,5.73-40.92,9.9c-3.21,1-5.95,3.47-9.61,3.16c-3.63,0.89-5.28-2.25-7.13-4.13
		c-1.15-1.17,0.68-2.47,2.49-2.7c5.42-0.69,9.93-3.35,14.42-6.34c4.32-2.87,9.58-3.72,14.77-5.42c-0.81-1.29-3.2-1.09-2.86-3.41
		c0.38-2.64,0.56-5.34-3.7-5.36c-1.81-0.01-2.64-5.79-0.88-7.18c3.57-2.81,6.57-6.57,12.42-4.66c4.62,1.5,9.88-1.54,14.81,0.9
		c1.01,0.5,2.4-0.97,3.45-2c3.12-3.03,7.1-4.14,11.33-4.45c1.1-0.08,2.56,0,2.56,1.46c0,1.41-1.46,0.96-2.34,1.02
		c-1.58,0.1-2.91,0.61-2.93,2.34c-0.03,2.69-1.68,2.71-3.66,2.76c-4.7,0.13-6.51,1.84-7.4,6.72c-2.01,1.57-3.58,0.28-4.68-1.09
		c-3.48-4.34-8.21-2.52-12.47-2.66c-1.95-0.06-0.96,1.86-0.98,2.99c0.02,0.4-0.04,0.79-0.17,1.17c-0.18,0.53,0-0.16-0.17,0.38
		c-2.03,6.34-1.4,6.81,5.17,6.19c5.55-0.52,9.09-4.24,13.31-6.97c6.53,6.11,14.57,2.85,21.97,3.43c2.14,0.17,3.92,0.24,4.84,2.37
		c0.59,1.37,1.37,2.53,2.6,0.86c1.56-2.12,3.53-1.49,5.6-1.71c6.66-0.71,13.29,0.85,19.91,0.09c3.89-0.45,7.66,1.57,11.62,0.28
		c0.91-0.3,2.95,0.5,2.78,1.91c-0.25,1.98-2.78,0.59-4.08,2.07c1.52,1.46,2.96,2.74,5.33,1.9c0.26-0.09,0.65-0.25,0.81-0.14
		c3.51,2.6,6.3,2.4,8.33-1.86c0.31-0.66,1.53-0.78,2.22-0.01c0.73,0.83,1.49,1.71,0.74,2.98c-0.49,0.84-2.28,1.96-0.81,2.58
		c1.4,0.59,2.56,2.01,4.87,1.31c4.79-1.45,9.68-1.92,14.28,1.65c3.78,2.93,9.57,0.74,10.32-3.37c-1.12-1.69-0.75-3.37,0.02-5.05
		c0.45-5.73,3.71-7.92,8.66-5.98c2.68,1.05,2.84,2.47,0.96,4.34c-1.22,1.21-2.15,2.58-2.88,4.11c-0.17,1.48-1.05,2.3-2.47,2.61
		c-0.56,1.99-3.85,3.46-1.13,6.07c2.34,2.25,4.59,1.58,7.26,0.33c3.07-1.44,6.83-3.46,7.63,2.71c0.18,1.41,2.26,1.39,3.56,1.77
		c2.21,0.65,4.82-0.04,6.25,2.96c0.46,0.96,3.44,1.41,4.22-1.28c2.71-1.7,5.46-3.36,6.7-6.56c0.09-6,1.72-7.72,7.52-7.68
		c2.38,0.02,5.4-0.49,3.12,3.77c-0.8,1.5,0.98,2.43,2.31,2.88c1.56,0.53,2.54,1.42,2.06,3.08c-0.47,1.64-2.06,1.26-3.23,1.17
		c-3.56-0.27-5.93,0.42-7.24,4.49c-1.55,4.81,0.55,8.76,5.85,9.04c3.48,0.18,6.97-0.3,10.44,0.75c2.56,0.77,4.45,2.02,4.45,4.78
		c0,2.6,1.32,3.1,3.44,2.92c1.63,1.69,4.19,0.07,5.86,1.63c-1.67-1.56-4.22,0.06-5.86-1.64c-0.31-3.22,1.34-4.14,4-2.95
		c3.33,1.5,6.03-0.88,9.06-1.06c0.13-0.01,0.23-0.74,0.34-1.14l0.02-0.01c2.2,0.46,1.73,2.23,1.75,3.7
		c0.03,1.45,0.01,2.92,1.68,3.48c6.43,2.17,12.89,2.55,19.36,0.12c0.38-0.14,0.98-0.68,1-0.66c2.88,3.75,7.43-1.51,10.96,2.44
		c2.77,3.09,6.15,1.36,7.44-2.79c0.39-1.25,0.51-2.74,2.15-2.54c1.82,0.22,1.25,1.93,1.26,3.07
		C1231.05,666.13,1230.98,670.06,1230.96,673.98z"/>
	<path class="st105" d="M1195.62,608.2c7.58,2.38,15.17,4.75,22.73,7.18c0.41,0.13,0.64,0.81,0.95,1.23
		c-0.69,0.2-1.24,0.38-1.14,1.37c0.36,3.94-2.02,5.85-5.76,4.45c-1.15-0.43-2.01-0.32-2.58,0.46c-0.88,1.2,0.54,1.18,1.1,1.62
		c0.57,0.45,1.11,1.01,0.77,1.76c-0.36,0.76-1.2,0.53-1.86,0.52c-4.44-0.03-8.07,0.87-7.89,6.5c0.01,0.45-0.48,1.04-0.9,1.33
		c-0.56,0.38-0.92-0.13-1.33-0.55c-0.86-0.9-0.44-3.5-2.42-2.63c-1.33,0.58-2.09,2.43-2.02,4.25c0.02,0.46-0.48,0.95-1.22,2.29
		c-1.3-3.64-3.9-5.91-1.41-9.79c0.63-0.98,0.11-3.79-0.03-5.75c-0.32-4.54-0.11-8.84,5.61-9.86
		C1197.9,610.51,1195.56,610.09,1195.62,608.2z"/>
	<path class="st106" d="M1028.5,609.3c5.33-0.18,10.55,0.24,15.66,2c2.56,0.88,5.16,0.38,7.58-1.21c3.55-2.32,7.33-2.68,11.06-0.25
		c1.69,1.09,2.7,2.62,1.84,4.61c-0.92,2.11-2.97,3.03-4.87,1.98c-3.02-1.66-5.23-0.8-7.62,1.08c-1.45,1.14-3.38,1.7-5.17,1.34
		c-6.19-1.24-12.37-1.91-18.71-1.24c-2.97,0.32-4.84-1.2-4.84-4.4C1023.42,610.26,1025.03,609.02,1028.5,609.3z"/>
	<path class="st107" d="M888.38,645.36c1.25,0.09,2.53,0.07,3.75,0.31c2.84,0.54,5.7,1.32,5.76,4.95c0.06,3.6-3.09,3.91-5.53,4.67
		c-1.71,0.54-3.56,0.68-5.36,0.88c-4.16,0.47-6.57-1.27-6.89-4.87c-0.29-3.3,1.72-5.33,5.74-5.76c0.83-0.09,1.68-0.01,2.52-0.01
		C888.38,645.47,888.38,645.42,888.38,645.36z"/>
	<path class="st108" d="M912.13,637.85c4.36-0.06,8.48,3.14,8.41,6.31c-0.06,3.03-3.7,6.21-7.26,6.34
		c-3.56,0.13-6.97-3.83-6.77-8.06C906.68,638.71,909.54,638.22,912.13,637.85z"/>
	<path class="st109" d="M1005.88,609.1c2.87,0.03,5.01-0.28,6.93,0.91c1.41,0.88,2.35,2.06,2.06,3.81c-0.3,1.79-1.58,2.61-3.27,2.72
		c-4.05,0.28-8.11,0.56-12.17,0.68c-2.09,0.06-3.57-1.13-3.63-3.27c-0.05-1.91,0.73-3.69,2.92-4.02
		C1001.34,609.54,1003.95,608.87,1005.88,609.1z"/>
	<path class="st110" d="M1154.98,640.21c3.38,0.35,6.8,1.01,8.39,4.45c0.96,2.06,0.05,4.15-1.84,5.57
		c-3.23,2.42-6.17,0.53-9.01-0.85c-2.26-1.09-4.09-2.8-3.13-5.66C1150.24,641.18,1152.16,639.92,1154.98,640.21z"/>
	<path class="st111" d="M864.45,669.94c-3.32,0.01-6.49-3.26-6.3-6.49c0.18-2.91,3.12-5.14,6.29-4.69c0.65,0.09,1.73,0.34,1.81,0.69
		c0.57,2.62,2.3,2.22,4.17,1.89c0.94-0.17,2.05-0.19,2.61,0.84c0.6,1.11,0.29,2.2-0.53,3.09C870.31,667.66,868.07,670,864.45,669.94
		z"/>
	<path class="st112" d="M1108.76,629.34c0.82-0.87,1.65-1.74,2.47-2.61c1.95-0.17,3.09-1.8,4.71-2.57c2.77-1.31,5.35-1.32,7.65,1.06
		c1.35,1.4,1.57,2.98,0.76,4.62c-0.74,1.5-2.2,2.5-3.79,2.01c-2.46-0.76-4.25-0.44-5.87,1.66c-0.97,1.24-2.54,1.11-3.87,0.46
		C1108.88,633.03,1108.58,631.27,1108.76,629.34z"/>
	<path class="st104" d="M1094.48,621.85c-3.71,4.26-5.41-0.07-7.72-1.8c-0.82-0.17-1.3-0.74-1.7-1.41
		c-0.61-2.11-2.12-2.71-4.15-2.42c-1.37-0.26-3.08,0.08-3.47-1.92c0.18-2.79,3.31-3.55,4.1-2.73c3.04,3.18,7.86-0.01,10.61,3.49
		c0.73,0.93,1.35-0.35,1.91-0.86c1.17-1.05,2.62-1.35,3.8-0.44c1.37,1.05-0.09,2.22-0.32,3.35
		C1097.13,619.11,1094.62,619.71,1094.48,621.85L1094.48,621.85z"/>
	<path class="st113" d="M1077.45,614.3c1.18,1.16,2.71,0.52,4.06,0.79c1.87,0.58,3.53,1.43,4.4,3.33c0.28,0.54,0.57,1.09,0.85,1.63
		c-1.83,5.85-4.06,6.58-8.72,2.89c-0.73-0.58-1.61-1.17-2.5-1.33c-4.22-0.79-4.72-3.15-2.99-6.58c0.22-0.81,0.65-1.28,1.57-0.99
		C1075.22,614.12,1076.33,614.21,1077.45,614.3z"/>
	<path class="st114" d="M1104.49,624.26c1.15,1.69,0.17,3.36-0.02,5.05c-2.5,2.42-5.14,3.83-8.49,1.46
		c-3.53-2.49-2.86-5.63-1.5-8.92c0,0,0,0,0,0C1098.42,620.15,1101.62,621.52,1104.49,624.26z"/>
	<path class="st115" d="M1185.37,655.4c-3.41,0.42-6.64,0.45-9.01-2.75c-1.14-1.54-1.41-2.99-0.47-4.61
		c1.08-1.86,7.24-3.05,9.22-1.48c2.29,1.82,2.99,4.27,1.14,6.97c-0.38,0.56-0.58,1.24-0.86,1.86
		C1185.39,655.39,1185.37,655.4,1185.37,655.4z"/>
	<path class="st116" d="M963.34,627.52c-3.21-0.31-6.17-0.88-7.01-4.34c-0.49-2,2.85-4.69,5.4-4.68c4.04,0.03,7.12,2.14,7.08,4.89
		C968.76,627.27,965.62,626.91,963.34,627.52z"/>
	<path class="st117" d="M1200.81,652.84c2.5-0.01,5.67,2.7,5.43,5.32c-0.28,3.01-2.01,4.89-5.19,4.93
		c-2.56,0.03-5.52-3.32-5.34-6.02C1195.91,654.27,1197.45,652.76,1200.81,652.84z"/>
	<path class="st104" d="M1074.11,614.04c-0.52,0.33-1.05,0.66-1.57,0.99c-1.32-0.1-1.86,1.12-2.8,1.66
		c-1.56,0.89-2.84,0.38-2.2-1.32c1.63-4.33-0.6-6.56-3.85-8.52c-0.74-0.45-2.18-0.71-1.42-2.04c0.58-1.02,1.68-0.44,2.65-0.39
		c3.73,0.2,6.92,3.2,11.14,1.93C1074.05,608.72,1073.92,611.35,1074.11,614.04z"/>
	<path class="st118" d="M942.54,637.89c-3.09-0.51-5.11-2.03-5.17-5.17c-0.06-3.17,1.84-5.1,4.92-5.06
		c3.16,0.04,5.34,1.87,5.33,5.25C947.61,636.18,945.39,637.46,942.54,637.89z"/>
	<path class="st119" d="M1143.25,635.34c0.69,3.5-2.04,6.17-6.7,6.56c-2.1-1.7-4.08-3.57-3.16-6.58c0.61-1.99,2.3-3.03,4.39-3.26
		C1140.43,631.78,1141.51,634.12,1143.25,635.34z"/>
	<path class="st120" d="M861.59,677.49c-2.39,2.97-5.67,1.13-8.52,1.59C855.56,676.64,858.65,677.48,861.59,677.49z"/>
	<path class="st121" d="M1050.68,457.99c-1.82,0.05-3.69,0.37-5.46,0.09c-6.08-0.94-10.92,1.07-14.77,5.73
		c-0.7,0.85-1.39,2.22-2.65,1.21c-4.11-3.28-7.6-0.41-10.46,1.64c-2.47,1.77-4.8,2.98-7.59,2.57c-3.65-0.54-4.37,1.6-4.78,4.31
		c-0.2,1.33,0.33,3.11-1.5,3.51c-1.64,0.36-1.9-1.37-2.47-2.41c-1.54-2.81-4.15-3.06-6.86-2.91c-0.91,0.05-2.11,0.4-2.21,1.57
		c-0.11,1.3,1.03,1.52,2.03,1.6c1.34,0.11,2.7,0.22,2.4,2.06c-0.28,1.75-2.09,1.71-3.04,1.53c-3.4-0.62-6.79-1.86-3.96,3.9
		c0.62,1.26-1.73,1.68-1.97,2.96c-0.37,1.92-0.7,3.85-1.03,5.77c-0.21,1.22-0.74,2.27-2.12,2.11c-1.29-0.15-1.17-1.37-1.2-2.34
		c-0.03-0.98,0.04-1.97-0.03-2.95c-0.08-1.18,0.28-2.91-1.73-2.59c-1.54,0.25-1.71,1.71-1.56,3.02c0.11,0.96,0.56,1.89,0.65,2.85
		c0.18,1.92-0.64,3.75-2.6,3.54c-6.11-0.65-9.84,3.87-14.45,6.36c-1.8,0.97-3.08,2.8-5.48,2.52c-0.5-0.06-1.5,0.25-1.51,0.44
		c-0.24,3.87-3.56,2.49-5.84,3.29c0.62,1.7,1.92,2.39,3.34,2.87c0.9,0.3,2.11,0.19,1.98,1.63c-0.11,1.17-0.98,1.68-2.03,1.77
		c-2.87,0.25-5.63,0.28-7.69,3.06c-0.78,1.04-3,0.69-4.07-0.8c-1.07-1.5-2.16-1.11-3.13-0.11c-0.97,1-0.19,1.73,0.68,2.37
		c1.02,0.75,2.26,1.56,1.19,3.04c-1.09,1.51-2.47,0.99-3.69,0.11c-1.78-1.29-3.79-0.78-5.72-0.79c-0.96,0-2.59-0.61-2.65,1.09
		c-0.04,1.17,1.14,1.83,2.31,2.13c1.28,0.33,3.12,0.08,3.25,1.91c0.12,1.78-1,3.08-2.57,4.04c-1.97,1.2-5.01,1.33-4.85,4.83
		c0.03,0.71-1.02,0.57-1.72,0.2c-3.93-2.02-8.62,0.61-12.54-2.01c-0.46-0.31-1.88,0.36-2.31,1.73c3.86,2.92,10.71-0.65,13.07,5.54
		c-5.6,1.41-10.18,6.06-16.83,4.41c4.31,1.41,6.93,3.13,4.92,7.88c-0.51,1.2-1.22,1.65-2.17,2.25c-2.42,1.52-4.73,3.2-3.65,6.68
		c0.36,1.18-0.1,1.96-1.29,2.14c-1.26,0.2-2.5,0.32-3.14-1.29c-0.37-0.92-0.46-2.72-1.91-2.2c-1.53,0.55-0.75,2.04-0.43,3.28
		c0.43,1.68-0.15,3.31-0.76,4.87c-0.61,1.57-1.13,3.18-1.92,4.66c-1.06,1.96-0.39,4.95-2.56,6.01c-2.38,1.16-3.9-1.56-5.89-2.37
		c-0.74-0.3-1.66-0.14-2.5-0.19c0.35-7.54,3.14-14.42,6.02-21.2c7.08-16.68,16.96-31.59,29.37-44.78c3.25-3.45,6.83-6.6,10.26-9.88
		c1.99-1.25,3.89-2.61,5.76-4.04c1.11-0.84,2.35,0.21,3.51,0.52c-1.42-0.56-2.01-1.45-1.19-2.92c0.07-0.12,0.18-0.21,0.28-0.31
		c0.26-0.13,0.52-0.14,0.79-0.04c2.18-0.39,3.24-4.06,6.18-2.13c0.39,0.26,0.33,0.42,0.22-0.07c-0.8-3.87,2.82-3.64,4.7-4.83
		c4.03-2.56,8.17-4.92,11.67-8.23c1.09-0.57,2.18-1.15,3.28-1.72c0.9-1.08,3,0.32,3.46-1.67c1.12-0.56,2.24-1.12,3.36-1.68
		c1.84-0.49,0.91,1.75,1.98,2.01c0.39,0.1,0.77,0.25,1.14-0.05c-0.29,0.07-0.65,0.26-0.86,0.07c-2.31-2.04-0.49-2.88,1.13-3.75
		c5.81-3.31,12.13-5.17,18.62-6.56c1.11,0.51-0.66,1.83,0.63,2.26c0.37,0.12,0.96,0.15,1.12-0.15c0.59-1.12-0.93-1.38-1.03-2.26
		c3.74-1.94,7.71-3.06,11.92-3.31c4.31,3.11,5.34,3.26,9.41,1.38c-4.31,1.93-5.76,1.69-8.68-1.45c3.65-2.41,8.06-2.45,12.05-2.99
		c9.42-1.29,18.99-1.38,28.53-1.13C1049.42,457.28,1050.05,457.74,1050.68,457.99z"/>
	<path class="st122" d="M847.94,579.44c0-5.37,3.11-9.59,5.22-14.18c1.69-2.3,1.94-5.22,3.24-7.68l0,0
		c1.32-3.57,2.98-6.97,5.03-10.18c-0.11-1.92,1.13-3.32,1.89-4.9c2.12-2.66,5.1-5.27,6.15-8c1.31-3.39,3.59-6.05,4.92-9.28
		c4.65-4.16,7.19-9.87,10.77-14.81c0.66-1.57,1.52-2.95,3.31-3.43c1.32-2.06,4.23-2.56,5.03-5.13l-0.01,0.03
		c3.17-2.79,5.1-7.04,9.65-8.22c0.56-0.14,0.98-0.61,1.21-1.1c2.23-4.69,5.39-8.41,10.48-10.16c1.24-0.43-0.41-1.82,0.69-2.35
		l-0.03-0.11c3.88-2.03,6.78-5.43,10.56-7.63c0.93-0.54,1.61-1.49,2.81-1.57c4.91-2.55,9.63-5.52,15.33-6.15
		c1.43-0.16,2.17-1.7,3.35-2.39c2.21-1.29,4.4-3.05,7.21-1.39c0.4,0.86,0.21,1.62-0.4,2.31c-2.93,0.85-6.49,0.7-6.81,5.22
		c-0.09,1.29-1.69,6.33-1.48,7.9c-0.14,0.01-0.29,0.06-0.42,0.03c-1.74-0.44-1.68-3.58-3.54-3.07c-2.34,0.65-4.45,2.21-6.61,3.46
		c-0.76,0.44-1.08,1.18-0.7,2.17c0.74,1.91,2.18,2.28,4.45,2c-4.75,0.57-3.44,3.75-3.45,6.32c0,1.45-0.01,2.92-2.06,2.96
		c-0.71-1.17-0.11-2.48-0.37-3.69c-0.54-2.51-2.16-3.97-4.68-3.98c-2.8-0.01-3.38,1.97-3.24,4.34c0.06,0.98,0.18,1.97-0.6,2.76
		c-1.55,0.01-1.24-1.57-1.95-2.29c-0.4-0.4-0.71-0.96-1.36-0.65c-0.57,0.27-0.62,0.79-0.51,1.41c0.58,3.16-1.04,4.85-3.89,5.65
		c-0.8,0.23-1.96,0.08-2.39,0.58c-1.95,2.33-2.54,5.55-6.7,6.13c-2.79,0.39-5.91,0.97-9.45,2.62c2.97,1.16,5.75,0.11,7.83,2.33
		c2.22,2.37,3.26,5.02,2.02,7.58c-1.43,2.95-4.05,5.24-7.64,5.88c-1.9,0.34-1.99-1.6-3.1-2.29c-1.88-1.17-2.69-1.51-4.75,0.43
		c-3.62,3.4-4.64,8.85-9.37,11.21c-0.4,0.2-0.78,0.99-0.73,1.45c0.23,1.96,2.03,4.68-2.1,4.4c-2.04-0.14-3.37,3.07-5.73,1
		c-0.73-0.64-1.32-0.05-1.48,0.72c-0.22,1.06,0.45,1.48,1.4,1.66c3.64,0.71,6.92,2.09,9.27,5.1c1.37,1.76,1.35,3.1-1.26,3.43
		c-1.66-0.3-1.66-2.06-2.62-2.99c-1.71-1.66-3.63-2.77-5.9-1.26c-1.47,0.98-1.69,2.6-0.69,4.04c1.36,1.96,3.13,3.1,5.68,1.98
		c1.06-0.47,1.9-1.78,3.34-1.03c1.01,3.47-1.4,4.03-3.82,4.2c-2.79,0.2-5.63-0.18-8.4,0.11c-2.87,0.29-6.74-0.15-4.64,5.22
		c0.52,1.34-2.67,1.66-3.9,2.8c-0.84,0.78-3-0.06-2.72,1.93c0.25,1.79,1.72,2.71,3.34,3.42c3.43,1.5,5.22,6.78,3.4,9.8
		c-0.65,1.08-1.48,1.2-2.1,0.29c-0.69-1.32-0.18-2.77-0.47-4.14c-0.46-2.2-1.79-3.46-4.04-3.59c-1.92-0.11-3.24,0.84-3.79,2.67
		c-0.64,2.13,0.5,3.45,2.2,4.48c1.19,0.72,2.66,0.94,3.65,2.03c-0.84,3.43-2.56,1.71-4.31,0.85c-1.17-0.58-2.1-2.42-3.96-0.74
		c-1.3,1.18-2.14,2.14-1.3,3.9c0.39,0.82,0.24,1.65-0.32,2.37c-3.78,4.82-6.13,10.22-6.75,16.36c-0.06,0.59-0.14,1.45-1.22,1.56
		c-1.3-1.17-0.02-3.77-2.27-4.46c-1.32-1.42-1.02-2.89-0.13-4.37c-0.02-0.27,0.01-0.53,0.09-0.78
		C844.54,587.43,845.29,582.86,847.94,579.44z"/>
	<path class="st123" d="M954.34,463.1c-0.01-0.84-0.02-1.68-0.02-2.53c-1.33-2.15-0.33-4.57,2.44-4.42
		c3.29,0.18,4.72-1.77,6.48-3.69c3.81-2.66,8.44-3.22,12.63-4.93c1.42-0.58,2.76-1.26,4.11-1.97c8.23-2.35,16.82-3.22,24.9-6.14
		c1.17-1.19,2.69-1.29,4.24-1.54c17.5-2.76,35.11-1.91,52.71-1.7c0.7,0.01,1.4,0.02,2.1,0.03c0.31,0.56,0.63,1.12,0.94,1.68
		c-0.74,2.14-1.59,2.44-4.12,1.73c-7.31-2.05-14.81-1.36-22.36-0.75c-5.19,0.42-10.2,1.91-15.66,1.52
		c-5.11-0.37-10.96,0.17-15.61,3.45c-1.52,1.07-3.13-0.08-3.84,0.39c-1.99,1.29-4.57,0.97-6.34,3.01c-2.07,2.38-5.04,2-7.84,0.26
		c-0.5,2.32,1.15,3.92,0.26,5.64c-2.13-0.06-4.28,0.1-6.31-0.79c-0.23-1.99-1.74-1.4-2.39-0.79c-1.41,1.34-3.85,1.05-4.68,3.14
		c-5.05-3.14-6.84,5.77-11.75,3.17C961.85,461.36,956.46,459.16,954.34,463.1z"/>
	<path class="st124" d="M889.33,580.53c3.24,2.5,5.53,5.55,4.93,9.87c-0.65,4.72-4.66,7.15-11.05,6.93c-1.9-1.76-4.11-3.22-5-5.9
		c-1.46-4.39-0.09-7.57,5.1-11.36C885.35,579.83,887.38,579.67,889.33,580.53z"/>
	<path class="st125" d="M861.5,575.84c-5.53-0.15-8.71-3.21-7.31-7.06c1.12-3.08,4.1-4.55,7.03-3.34c2.88,1.19,5.67,4.6,2.73,8.95
		C863.13,574.87,862.31,575.35,861.5,575.84z"/>
	<path class="st126" d="M924.84,489.51c-0.02-0.14-0.03-0.28-0.06-0.42c-0.65-2.73-1.69-5.61,1.3-7.61c2.16-1.45,4.38-0.74,6.2,0.77
		c2.59,2.14,3.21,4.81,1.44,7.84C930.57,492.82,927.65,492.04,924.84,489.51z"/>
	<path class="st127" d="M983.03,452.34c2.36-1.77,4.36-0.71,6.31,0.79c0.63,1.4,1.42,2.75,1.87,4.21c0.84,2.72-0.32,4.81-2.88,5.65
		c-2.34,0.77-4.4,0.01-5.44-2.54C981.76,457.71,981.73,455.02,983.03,452.34z"/>
	<path class="st128" d="M882.79,546.62c-2.53,2.31-4.98,4.66-8.63,1.67c-2.22-1.82-3.31-3.79-1.75-6.46c1.68-2.88,4.1-2.79,6.8-1.47
		c2.34,1.14,3.49,3.01,3.77,5.52C882.75,546.09,882.68,546.33,882.79,546.62z"/>
	<path class="st129" d="M1021.99,448.7c-0.09,4.54-3.18,4.84-6.13,5.01c-2.6,0.15-4.23-1.09-4.16-3.97c0.08-3.2,1.34-5.5,4.82-5.56
		C1019.68,444.13,1021.81,445.62,1021.99,448.7z"/>
	<path class="st130" d="M1047.63,452.76c-2.55-0.13-4.27-1.71-4.26-4.72c0.01-2.87,0.87-5.49,4.39-5.45
		c3.24,0.04,5.27,1.83,5.37,5.21C1053.23,451.16,1051.15,452.5,1047.63,452.76z"/>
	<path class="st131" d="M962.74,478.28c0.25,1.29-0.33,2.53-2.68,4.13c-3.33,2.27-6.88,4.17-10.62,5.73
		c-2.13,0.89-3.76,2.33-0.52,4.7c-3.28-1.14-6.06-1.79-7.81,1.86c-0.28,0.57-0.99-0.48-1.13-1.16c3.32-4.9,8.85-6.98,13.42-10.23
		C956.23,481.29,958.95,478.69,962.74,478.28z"/>
	<path class="st97" d="M1077.39,437.98c5.51,0.43,11.08,0.56,16.16,3.19c-5.3,1.09-10.14-1.48-15.25-1.94
		C1077.96,439.2,1077.69,438.41,1077.39,437.98z"/>
	<path class="st103" d="M1008.2,461.39c2.56,1.53,5.04,2.74,7.9,0.34c0.88-0.74,2.36-0.4,3.43,0.6c-5.81,3.86-8.43,3.64-12.06-0.87
		C1007.71,461.33,1007.95,461.3,1008.2,461.39z"/>
	<path class="st103" d="M995.55,464.77c1.93,0.14,4.41,0.89,3.14,2.97c-1.61,2.65-4.22-0.19-6.74,0.03
		c0.64-1.73,3.04-0.98,2.88-2.85C995.05,464.77,995.29,464.72,995.55,464.77z"/>
	<path class="st131" d="M939.18,493.58c-0.12,1.3,0.26,2.46,1.25,3.71c-4.36-2.09-6.02,3.27-9.6,3.03
		C933.54,498,935.55,494.78,939.18,493.58z"/>
	<path class="st94" d="M841.24,591.31c0.04,1.46,0.09,2.91,0.13,4.37c-0.12,1.12-0.62,1.98-1.68,2.45
		C840.02,595.81,838.18,593,841.24,591.31z"/>
	<path class="st131" d="M976.22,471.48c-1.12,1.57-1.13,1.57,0.4,2.57c0.58,0.38,0.46,0.92,0.33,1.42c-0.2,0.75-0.78,0.49-1.33,0.48
		c-1.86-0.02-1.73-1.97-2.78-2.75C973.54,471.81,974.74,471.36,976.22,471.48z"/>
	<path class="st131" d="M969.48,474.88c0.16,1.19,0.33,2.39,0.54,3.96c-1.67-0.51-2.08-2.92-4-2.29
		C966.55,474.71,968.1,474.98,969.48,474.88z"/>
	<path class="st121" d="M889.33,580.53c-2-0.15-4-0.3-6.01-0.45c0.48-0.87,0.66-1.96,1.71-2.43
		C885.21,580.47,888.43,578.77,889.33,580.53z"/>
	<path class="st132" d="M1066.52,334c14.98,2.72,25.82,11.64,34.71,23.36c1.86,2.46,4.94,4.89,3.35,8.45
		c-1.64,3.65-5.42,2.75-8.58,2.89c-14.47,0.64-28.61-0.86-41.93-6.98c-8.68-3.99-15.85-10.09-21.98-17.32
		c-1.53-1.8-2.07-4.24,1.35-5.97c5.43-2.75,11.43-2.8,17.07-4.44C1055.84,333.44,1061.18,333.44,1066.52,334z"/>
	<path class="st0" d="M1149.86,387.96c-6.18-0.1-11.03-0.45-14.97-2.83c-4.63-2.79-9.22-2.79-14.14-2.11
		c-1.81,0.25-3.63,0.55-5.44,0.54c-2.51-0.02-4.4-1.05-4.48-3.92c-0.08-2.73,1.27-4.15,4.04-4.2c0.98-0.02,1.96-0.11,2.94-0.2
		c5.91-0.53,11.42-1.7,16.49-5.4c7.24-5.29,15.67-6.44,24.5-4.76c7.7,1.46,14.71,4.64,21.32,8.65c3.97,2.41,3.75,6.33-0.62,7.33
		C1169.14,383.42,1159.21,387.8,1149.86,387.96z"/>
	<path class="st133" d="M1201.28,415.43c-5.27,0.06-9.02-3.81-9.09-9.37c-0.07-5.25,3.89-9.36,9.11-9.46
		c5.33-0.1,9.67,4.12,9.7,9.43C1211.03,411.29,1206.81,415.37,1201.28,415.43z"/>
	<path class="st133" d="M1121.43,356.84c-3.06,0.03-5.73-2.65-5.86-5.9c-0.15-3.51,2.36-6.5,5.56-6.6c3.49-0.11,6.24,2.66,6.3,6.34
		C1127.47,354.02,1124.76,356.8,1121.43,356.84z"/>
	<path class="st134" d="M1010,349.05c3.03-1.47,5.92-1.82,8.47,0.96c1.16,2.7,1.71,5.47-1.01,7.49c-2.27,1.68-4.86,2.95-7.52,0.51
		C1007.82,356.07,1007.86,352.07,1010,349.05z"/>
	<path class="st135" d="M1169.24,399.05c3.3-0.02,5.72,2.48,5.74,5.91c0.01,2.9-2.71,5.79-5.7,5.6c-3.15-0.2-5.23-1.99-5.46-5.3
		C1163.59,401.86,1166.12,399.07,1169.24,399.05z"/>
	<path class="st36" d="M1030.88,377.15c-1.32-0.3-3.31,0.5-3.26-1.6c0.03-1.31,1.54-1.84,2.9-1.81c1.4,0.03,3.26,0.11,3.39,1.67
		C1034.07,377.4,1032.03,376.88,1030.88,377.15z"/>
	<path class="st36" d="M1066.52,334c-5.34,0-10.68,0-16.02,0C1055.84,332.71,1061.18,332.71,1066.52,334z"/>
	<path class="st36" d="M1039.43,372.04c0.84,0.17,2.2-0.32,2.12,1.2c-0.05,0.92-1.02,1.24-1.91,1.25c-1.04,0.02-2.13-0.22-2.16-1.42
		C1037.46,371.9,1038.62,372.15,1039.43,372.04z"/>
	<path class="st36" d="M1053.32,363.89c-0.12,0.85-0.66,1.23-1.4,1.25c-1.08,0.03-1.92-0.42-1.93-1.61c-0.01-0.74,0.51-1.3,1.29-1.3
		C1052.38,362.24,1052.97,362.98,1053.32,363.89z"/>
	<path class="st136" d="M1038.7,663.92c1.94,2.73,3.88,5.46,5.83,8.19c1.39,1.95,4.09,3.78,1.05,6.33c-2.7,2.27-5.69,2.99-8.81,0.65
		c-4.33-3.25-6.48-10.66-4.62-15.9C1034.54,661.58,1036.66,662.37,1038.7,663.92z"/>
	<path class="st32" d="M1198.79,672.42c2.27,0.66,5.52-1.94,6.81,2.03C1203.4,673.54,1200.5,674.98,1198.79,672.42z"/>
	<path class="st32" d="M1212.21,675.82c1.92,0.44,4.97-1.72,5.31,2.33C1215.77,677.33,1213.29,678.18,1212.21,675.82z"/>
	<path class="st32" d="M1185.55,668.98c2.27,0.39,5.04-1.16,6.65,1.73C1189.88,670.56,1187.36,671.13,1185.55,668.98z"/>
	<path class="st32" d="M1170.06,664c1.8,0.4,4.23-1.37,5.29,1.55C1173.49,665.35,1171.33,666.18,1170.06,664z"/>
	<path class="st32" d="M1158.38,660.59c1.75,0.44,4.18-1.33,5.16,1.6C1161.74,661.93,1159.54,662.93,1158.38,660.59z"/>
	<path class="st137" d="M1063.98,635.25c2.42-0.1,4.89-0.41,6.8,1.62C1068.36,637.01,1065.89,637.3,1063.98,635.25z"/>
	<path class="st32" d="M1192.17,670.7c1.73,0.44,4.13-1.28,5.11,1.58C1195.34,672.52,1193.57,672.23,1192.17,670.7z"/>
	<path class="st138" d="M948.75,366.73c4.07,2.94,8.08,3.49,11.97,4.35c0.82,0.18,1.73,0.04,2.5,0.32c2.33,0.86,6.36-0.22,6.47,3.24
		c0.12,3.5-3.84,4.08-6.5,4.81c-4.02,1.11-8.06,0.29-11.96-1.13c-7.21-2.64-13.3-7.17-19.48-11.54c-1.25-0.88-2.75-1.91-2.47-3.64
		c0.32-1.96,2.29-2.41,3.87-2.77c7.91-1.79,15.99-2.83,23.77-5.26c5.21-1.63,10.37-3.5,15.68-4.72c2.59-0.6,6.5-2.32,7.84,1.32
		c1.3,3.52-2.5,4.83-4.98,6.16C967.37,362.21,958.73,365.01,948.75,366.73z"/>
	<path class="st139" d="M990.49,336c3.24,0,5.99,2.99,5.87,6.4c-0.1,2.9-2.93,5.54-5.85,5.46c-3.18-0.09-5.85-2.81-5.86-5.96
		C984.65,338.65,987.27,336,990.49,336z"/>
	<path class="st140" d="M1077.44,746.55c8.68-3.69,17.38-7.34,25.1-12.91c0.51-0.37,1.31-0.35,1.98-0.51
		c-1.31,5.17-6.02,8.11-9.72,10.03c-4.75,2.47-10.03,4.59-15.28,6.34c-1.2,0.4-2.11-0.34-2.91-1.16
		C1076.52,747.58,1076.99,747.07,1077.44,746.55z"/>
	<path class="st140" d="M1059.75,751.62c1.07-1.43,2.62-1.62,4.24-1.66c4.01-0.1,7.49-3.98,11.84-1.66
		c-0.26,0.62-0.47,1.74-0.8,1.77C1069.94,750.63,1065.12,754.01,1059.75,751.62z"/>
	<path class="st141" d="M1075.83,748.3c-4.11-0.62-7.66,2.74-11.84,1.66c2.56-2.55,6.08-2.49,9.26-3.3c1.32-0.34,2.79-0.09,4.2-0.11
		c-0.01,0.72-0.15,1.38-0.83,1.8c0,0-0.39-0.07-0.39-0.07L1075.83,748.3z"/>
	<path class="st142" d="M1104.43,733.02c1.67-3.19,2.92-6.73,6.73-8.16c0.75,1.85-1.01,2.73-1.57,4.06
		C1107.27,729.54,1107.73,733.66,1104.43,733.02z"/>
	<path class="st143" d="M963.69,453.07c-1.86,1.81-2,6.55-6.51,3.8c-0.6,1.51-4.33,0.59-2.87,3.7c-3.17,0.94-6.52,1.59-8.38,4.82
		c-0.4,0.69-0.99,0.71-1.76,0.72c-4.21,0.1-8.09,1.22-11.37,4.03c-1.08,0.93-2.28,1.64-3.82,1.39c-0.48-0.57-0.48-1.14-0.02-1.72
		c3.47-3.94,8.32-5.84,12.8-8.09c4.94-2.48,9.69-5.21,14.38-8.1c1.06-0.65,2.12-0.58,3.23-0.61
		C960.83,452.06,962.27,451.79,963.69,453.07z"/>
	<path class="st144" d="M915.52,480.03c0.53,1.1,1.18,2.16,1.54,3.32c0.18,0.57-0.1,1.69-1.09,1.09c-2.77-1.67-3.93,1.22-5.81,1.96
		c-0.81,0.32-1.47,1.31-1.93,2.14c-3.36,6.17-9.16,9.62-14.74,13.31c-0.22-3.9,3.2-5.4,5.31-7.58c4.57-4.71,9.52-9.04,14.39-13.46
		C913.74,480.32,914.73,480.28,915.52,480.03z"/>
	<path class="st145" d="M1004.87,439.42c-0.88,2.29-3.41,2.66-4.99,2.83c-4.13,0.46-7.91,2.81-12.11,2.32
		c-2.99-0.35-5.3,1.73-8.11,1.78c-0.46-0.55-0.54-1.1-0.02-1.66c5.41-1.91,11.3-1.98,16.57-4.49
		C998.92,438.91,1001.97,439.58,1004.87,439.42z"/>
	<path class="st146" d="M979.64,444.69c0.01,0.55,0.01,1.1,0.02,1.66c-1.1,2.87-4.08,2.36-6.18,3.1c-3.29,1.15-6.57,2.32-9.79,3.63
		c-1.44-0.02-2.87-0.04-4.31-0.06c2.34-3.24,6.34-3.02,9.54-4.25C972.48,447.39,975.56,444.66,979.64,444.69z"/>
	<path class="st147" d="M875.11,525.6c-0.97,1.66-2.21,3.21-2.84,4.99c-1.16,3.25-0.92,7.14-5.57,8.32
		c-0.71,0.18-1.6,2.88-3.38,3.58c2.19-6.33,6.01-11.7,10.09-16.9C873.98,525.06,874.55,525.13,875.11,525.6z"/>
	<path class="st148" d="M875.11,525.6c-0.57,0-1.13-0.01-1.7-0.01c3.09-5.7,7.01-10.77,11.75-15.19c1.9,2.78-1.28,4.21-2.22,5.28
		C880.13,518.85,879.57,523.82,875.11,525.6z"/>
	<path class="st149" d="M928.97,469.82c0.01,0.57,0.02,1.15,0.03,1.72c-2.6,3.12-7.27,3.61-9.35,7.48c-0.86,1.6-2.68,1-4.16,0.9
		C918.8,474.98,923.32,471.65,928.97,469.82z"/>
	<path class="st150" d="M861.44,547.39c-0.46,3.99-2.5,7.21-5.03,10.18C856.29,553.29,857.61,549.72,861.44,547.39z"/>
	<path class="st144" d="M893.5,501.83c0.69,4.03-2.96,3.81-5.03,5.13C889.31,504.43,890.99,502.73,893.5,501.83z"/>
	<path class="st150" d="M856.4,557.57c0.28,3.14-0.62,5.77-3.24,7.68c-0.02-0.85-0.04-1.69-0.05-2.54
		C855.7,561.96,853.52,558.14,856.4,557.57z"/>
	<path class="st151" d="M1178.58,722.87c3.78-3.42,8.78-3.5,13.32-4.71c2.23-0.59,4.73-0.15,7.11-0.18c-1.51,3-4.86,1.92-7.21,2.85
		C1187.75,722.42,1183.02,722.28,1178.58,722.87z"/>
	<path class="st152" d="M1114.61,773.53c0.55-1.01,1.11-2.02,1.66-3.03c6.15-2.64,11.14-7.12,16.81-10.52
		c-2.21,5.25-7.16,7.69-11.67,9.91C1119.11,771.02,1117.39,773.38,1114.61,773.53z"/>
	<path class="st153" d="M1170.11,726.17c1.44-2.99,4.04-3.43,6.96-3.17C1175.38,725.44,1172.98,726.31,1170.11,726.17z"/>
	<path class="st154" d="M1145.09,436.02c2.39-0.15,3.5,1,3.41,3.37C1146.47,439.16,1145.85,437.52,1145.09,436.02z"/>
	<path class="st155" d="M1200.65,485.04c2.32-0.26,4.53-0.06,6.03,1.99c1.1,1.5,2.64,1.33,4.15,1.43c-1.15,2.94-3.12,1.56-4.65,0.66
		C1204.21,487.97,1202.48,486.42,1200.65,485.04z"/>
	<path class="st156" d="M1229.22,527.35c2.91-0.19,5.81-0.35,6.87,3.31c0.5,0.47,0.5,0.95,0.02,1.43
		C1233.68,530.69,1230.89,529.83,1229.22,527.35z"/>
	<path class="st157" d="M1236.11,532.09c-0.01-0.48-0.01-0.96-0.02-1.43c2.25,1.16,4.47-0.44,6.72-0.09
		C1241.08,533.32,1238.52,532.39,1236.11,532.09z"/>
	<path class="st94" d="M847.94,579.44c-1.49,4.12-2.11,8.76-6.61,11.09C843.07,586.56,844.08,582.15,847.94,579.44z"/>
	<path class="st158" d="M1008.83,518.72c4.58,0.01,7.96,3.37,7.96,7.91c0,4.27-3.69,8.05-7.94,8.15c-4.44,0.1-8.07-3.42-8.09-7.86
		C1000.71,522.02,1003.97,518.71,1008.83,518.72z"/>
	<path class="st159" d="M1160.64,543.27c-4.59-0.07-7.7-3.46-7.56-8.23c0.13-4.39,3.58-7.78,7.77-7.63c4.4,0.16,7.91,3.92,7.77,8.31
		C1168.48,539.99,1164.94,543.34,1160.64,543.27z"/>
	<path class="st160" d="M1115.52,544.13c-0.04,4.23-3.71,7.75-7.93,7.6c-4.07-0.15-7.15-3.28-7.2-7.31
		c-0.06-4.52,3.13-7.95,7.42-7.98C1112.21,536.4,1115.56,539.75,1115.52,544.13z"/>
	<path class="st161" d="M1070.41,529.86c0.19-4.22,3.26-7.08,7.36-6.83c3.73,0.22,6.65,3.54,6.48,7.38
		c-0.19,4.09-3.36,7.16-7.32,7.07C1072.9,537.38,1070.22,534.25,1070.41,529.86z"/>
	<path class="st158" d="M1050.41,521.43c-0.11,3.46-3.11,6.46-6.46,6.45c-3.74-0.01-6.4-2.89-6.34-6.87
		c0.05-3.74,2.71-6.44,6.28-6.41C1047.48,514.64,1050.52,517.83,1050.41,521.43z"/>
	<path class="st162" d="M972.77,526.28c3.59-0.07,6.45,2.61,6.64,6.23c0.19,3.57-2.96,6.84-6.55,6.79
		c-3.42-0.04-5.91-2.65-5.99-6.26C966.79,529.17,969.24,526.35,972.77,526.28z"/>
	<path class="st158" d="M1057.7,548.61c-0.24,3.03-3.03,5.37-6.04,5.06c-3.38-0.35-5.59-2.75-5.15-5.9c0.45-3.23,2-5.54,5.72-5.4
		C1055.39,542.5,1057.95,545.44,1057.7,548.61z"/>
	<path class="st32" d="M993.14,614.99c-1.41,4.54-5.86,5.59-9.31,7.38c-2.42,1.25-5.76,0.59-8.62,1.16
		c-3.07,0.61-3.72-1.07-2.94-3.21c0.65-1.78-0.54-4.49,2.29-5.34c1.86,3.46,4.78,4.47,8.48,3.61c1.28-0.3,2.47-0.8,2.5-2.38
		c0.03-1.31-0.89-2.01-1.94-2.5c-1.74-0.8-3.48-0.9-5.26,0c-1.18,0.59-2.13,1.98-3.76,1.26c-0.8-1.41-2.33-2.65-1.35-4.54
		c1.08-2.07,2.74-0.43,4.12-0.5c1.54-0.08,3.09,0.1,4.62-0.02c3-0.24,5.5,0.4,7.22,3.16C990.03,614.42,991.41,615.18,993.14,614.99
		C993.13,614.99,993.14,614.99,993.14,614.99z"/>
	<path class="st32" d="M1221.77,673c1.82-0.73,3.13-1.19,3.98,0.49c0.32,0.63,0.21,1.56-0.48,1.81
		C1223.49,675.96,1223.07,674.24,1221.77,673z"/>
	<path class="st32" d="M1171.98,660.54c2.35,0.17,5.02-0.64,6.51,2.2C1176.6,661.13,1173.31,663.88,1171.98,660.54L1171.98,660.54z"
		/>
	<path class="st32" d="M1209.2,619.64c1.59-3.58,4.58-1.36,6.54-2.62c0.58-0.37,0.99,1.1,1.12,1.89c0.17,0.99-0.58,1.14-1.3,1.11
		C1213.53,619.93,1211.5,619.78,1209.2,619.64z"/>
	<path class="st32" d="M1199.28,618.4c0.01,0.97-0.89,1.85-1.02,1.72c-1.14-1.18-2.34-2.41-3.08-3.85
		c-0.54-1.05,1.27-1.37,1.51-1.35C1198.88,615.09,1197.8,617.74,1199.28,618.4z"/>
	<path class="st32" d="M1085.91,618.42c-1.46-1.11-2.93-2.22-4.39-3.34C1084.19,614.6,1085.69,615.66,1085.91,618.42z"/>
	<path class="st103" d="M977.14,487.47c-0.61,2.42-2.17,4.13-4.16,5.49c-0.46,0.32-1.13,0.39-1.45-0.23
		c-0.15-0.3-0.09-1.05,0.08-1.13c2.86-1.23,0.85-2.21,0.02-3.55c-1.13-1.82,1.06-2.67,1.77-3.85c0.74-1.23-1.29-3.82,1.23-3.57
		c1.46,0.14,1.38,2.76,1.76,4.36C976.58,485.81,976.87,486.6,977.14,487.47z"/>
	<path class="st163" d="M907.36,510.76c0.07,2.62-2.84,5.4-5.76,5.48c-3.06,0.09-6.72-3.29-6.66-6.27c0.06-3.4,2.18-5.01,5.27-5.31
		C903.86,504.3,907.27,507.33,907.36,510.76z"/>
	<path class="st164" d="M1078.47,352.52c-8.85,0.59-15.7-3.63-22.81-8.46C1063.42,340.99,1076.73,345.05,1078.47,352.52z"/>
	<path class="st165" d="M1142.14,375.4c4.94-3.49,10.32-2.86,15.75-1.71C1152.75,375.31,1147.45,375.4,1142.14,375.4z"/>
	<path class="st166" d="M974.56,614.97c2.81-3.08,6.08-4.33,10.09-2.48c1.62,0.75,2.74,1.91,2.7,3.85c-0.04,2.03-1.47,2.91-3.1,3.5
		c-5.48,1.98-9.4,0-9.7-4.85C974.55,614.98,974.56,614.97,974.56,614.97z"/>
</g>
</svg>
